<svg width="40" height="40" viewBox="0 0 40 40" fill="none" xmlns="http://www.w3.org/2000/svg">
<rect width="40" height="40" rx="4" fill="#0B131E"/>
<path d="M15.7661 31.9685C16.0474 32.0931 16.3441 31.8232 16.1719 31.5998C15.2371 30.3873 14.3519 28.347 15.7622 25.7194C18.1141 21.3375 19.5452 19.068 19.5452 19.068C19.5452 19.068 20.3064 21.7165 22.3698 24.0714C24.3557 26.3377 25.4427 29.1881 23.6903 31.5627C23.5259 31.7856 23.8159 32.0485 24.0953 31.9293C26.2645 31.0045 28.6975 29.1495 28.972 25.4581C29.0732 24.3301 28.9214 22.7508 28.1624 20.758C27.1864 18.2323 25.9867 17.0537 25.2925 16.5476C25.0848 16.3962 24.7619 16.5304 24.7789 16.7599C24.9812 19.4852 23.751 20.1767 23.0508 18.6182C22.7712 17.9957 22.6081 16.919 22.6081 15.6077C22.6081 13.4248 21.8482 11.1777 20.1728 9.35163C19.7371 8.87677 19.2273 8.43304 18.6425 8.05465C18.4307 7.91763 18.1238 8.05536 18.1432 8.27818C18.2718 9.75802 18.1553 13.9992 13.6907 19.066C9.64273 23.766 11.2113 27.3756 11.7679 28.3533C12.8321 30.2262 14.3165 31.3261 15.7661 31.9685Z" fill="#337AFE"/>
</svg>
