<svg width="25" height="24" viewBox="0 0 25 24" fill="none" xmlns="http://www.w3.org/2000/svg">
<path d="M11.5767 14.4697C11.7173 14.329 11.9081 14.25 12.107 14.25C12.3059 14.25 12.4967 14.329 12.6373 14.4697C12.778 14.6103 12.857 14.8011 12.857 15V17.25C12.8558 18.2442 12.4603 19.1973 11.7573 19.9003C11.0543 20.6033 10.1012 20.9988 9.107 21H7.25C6.2558 20.9988 5.30267 20.6033 4.59967 19.9003C3.89666 19.1973 3.50119 18.2442 3.5 17.25V6.75C3.50119 5.7558 3.89666 4.80267 4.59967 4.09966C5.30267 3.39666 6.2558 3.00119 7.25 3H9.107C10.1012 3.00119 11.0543 3.39666 11.7573 4.09966C12.4603 4.80267 12.8558 5.7558 12.857 6.75V9C12.857 9.19891 12.778 9.38968 12.6373 9.53033C12.4967 9.67098 12.3059 9.75 12.107 9.75C11.9081 9.75 11.7173 9.67098 11.5767 9.53033C11.436 9.38968 11.357 9.19891 11.357 9V6.75C11.357 6.15326 11.1199 5.58097 10.698 5.15901C10.276 4.73705 9.70374 4.5 9.107 4.5H7.25C6.65326 4.5 6.08097 4.73705 5.65901 5.15901C5.23705 5.58097 5 6.15326 5 6.75V17.25C5 17.8467 5.23705 18.419 5.65901 18.841C6.08097 19.2629 6.65326 19.5 7.25 19.5H9.107C9.70374 19.5 10.276 19.2629 10.698 18.841C11.1199 18.419 11.357 17.8467 11.357 17.25V15C11.357 14.8011 11.436 14.6103 11.5767 14.4697Z" fill="white"/>
<path d="M17.364 6.97018L20.8035 10.4097C21.2251 10.8318 21.5003 11.4034 21.5 12C21.4997 12.5966 21.224 13.1694 20.802 13.5912L17.3625 17.0307C17.2933 17.1023 17.2106 17.1594 17.1191 17.1988C17.0275 17.2381 16.9291 17.2587 16.8296 17.2596C16.73 17.2605 16.6312 17.2415 16.539 17.2038C16.4469 17.1661 16.3631 17.1104 16.2927 17.04C16.2223 16.9696 16.1666 16.8858 16.1289 16.7936C16.0912 16.7015 16.0722 16.6027 16.0731 16.5031C16.0739 16.4035 16.0946 16.3051 16.1339 16.2136C16.1732 16.1221 16.2304 16.0394 16.302 15.9702L19.5443 12.7272L8 12.7504C7.80109 12.7504 7.61032 12.6714 7.46967 12.5308C7.32902 12.3901 7.25 12.1993 7.25 12.0004C7.25 11.8015 7.32902 11.6107 7.46967 11.4701C7.61032 11.3294 7.80109 11.2504 8 11.2504L19.5 11.2279L16.3035 8.03068C16.2319 7.96149 16.1747 7.87873 16.1354 7.78723C16.0961 7.69573 16.0754 7.59731 16.0746 7.49773C16.0737 7.39814 16.0927 7.29938 16.1304 7.20721C16.1681 7.11504 16.2238 7.0313 16.2942 6.96088C16.3646 6.89046 16.4484 6.83477 16.5405 6.79706C16.6327 6.75935 16.7315 6.74037 16.8311 6.74124C16.9306 6.7421 17.029 6.76279 17.1206 6.8021C17.2121 6.84141 17.2948 6.89854 17.364 6.97018Z" fill="white"/>
</svg>
