   <svg
      width="41"
      height="40"
      viewBox="0 0 41 40"
      fill="none"
      xmlns="http://www.w3.org/2000/svg"
    >
      <path
        d="M34.9131 4.457L22.4209 13.7351L24.731 8.26114L34.9131 4.457Z"
        fill="#E2761B"
        stroke="#E2761B"
        stroke-linecap="round"
        stroke-linejoin="round"
      />
      <path
        d="M6.07471 4.457L18.4664 13.823L16.2693 8.26114L6.07471 4.457Z"
        fill="#E4761B"
        stroke="#E4761B"
        stroke-linecap="round"
        stroke-linejoin="round"
      />
      <path
        d="M30.4189 25.9636L27.0918 31.0609L34.2104 33.0195L36.2569 26.0766L30.4189 25.9636Z"
        fill="#E4761B"
        stroke="#E4761B"
        stroke-linecap="round"
        stroke-linejoin="round"
      />
      <path
        d="M4.75635 26.0766L6.79025 33.0195L13.9089 31.0609L10.5818 25.9636L4.75635 26.0766Z"
        fill="#E4761B"
        stroke="#E4761B"
        stroke-linecap="round"
        stroke-linejoin="round"
      />
      <path
        d="M13.5071 17.3509L11.5234 20.3515L18.5919 20.6654L18.3408 13.0697L13.5071 17.3509Z"
        fill="#E4761B"
        stroke="#E4761B"
        stroke-linecap="round"
        stroke-linejoin="round"
      />
      <path
        d="M27.4805 17.3509L22.5841 12.9818L22.4209 20.6654L29.4768 20.3515L27.4805 17.3509Z"
        fill="#E4761B"
        stroke="#E4761B"
        stroke-linecap="round"
        stroke-linejoin="round"
      />
      <path
        d="M13.9087 31.0609L18.1523 28.9893L14.4862 26.1268L13.9087 31.0609Z"
        fill="#E4761B"
        stroke="#E4761B"
        stroke-linecap="round"
        stroke-linejoin="round"
      />
      <path
        d="M22.8354 28.9893L27.0916 31.0609L26.5015 26.1268L22.8354 28.9893Z"
        fill="#E4761B"
        stroke="#E4761B"
        stroke-linecap="round"
        stroke-linejoin="round"
      />
      <path
        d="M27.0916 31.0609L22.8354 28.9893L23.1744 31.764L23.1368 32.9316L27.0916 31.0609Z"
        fill="#D7C1B3"
        stroke="#D7C1B3"
        stroke-linecap="round"
        stroke-linejoin="round"
      />
      <path
        d="M13.9087 31.0609L17.8635 32.9316L17.8384 31.764L18.1523 28.9893L13.9087 31.0609Z"
        fill="#D7C1B3"
        stroke="#D7C1B3"
        stroke-linecap="round"
        stroke-linejoin="round"
      />
      <path
        d="M17.9262 24.2938L14.3857 23.2517L16.8842 22.1092L17.9262 24.2938Z"
        fill="#233447"
        stroke="#233447"
        stroke-linecap="round"
        stroke-linejoin="round"
      />
      <path
        d="M23.061 24.2938L24.1031 22.1092L26.6141 23.2517L23.061 24.2938Z"
        fill="#233447"
        stroke="#233447"
        stroke-linecap="round"
        stroke-linejoin="round"
      />
      <path
        d="M13.9086 31.0609L14.5112 25.9636L10.5815 26.0766L13.9086 31.0609Z"
        fill="#CD6116"
        stroke="#CD6116"
        stroke-linecap="round"
        stroke-linejoin="round"
      />
      <path
        d="M26.4888 25.9636L27.0914 31.0609L30.4185 26.0766L26.4888 25.9636Z"
        fill="#CD6116"
        stroke="#CD6116"
        stroke-linecap="round"
        stroke-linejoin="round"
      />
      <path
        d="M29.4768 20.3515L22.4209 20.6654L23.0738 24.2938L24.1158 22.1092L26.6268 23.2517L29.4768 20.3515Z"
        fill="#CD6116"
        stroke="#CD6116"
        stroke-linecap="round"
        stroke-linejoin="round"
      />
      <path
        d="M14.3855 23.2517L16.8965 22.1092L17.926 24.2938L18.5914 20.6654L11.5229 20.3515L14.3855 23.2517Z"
        fill="#CD6116"
        stroke="#CD6116"
        stroke-linecap="round"
        stroke-linejoin="round"
      />
      <path
        d="M11.5234 20.3515L14.4864 26.1268L14.386 23.2517L11.5234 20.3515Z"
        fill="#E4751F"
        stroke="#E4751F"
        stroke-linecap="round"
        stroke-linejoin="round"
      />
      <path
        d="M26.627 23.2517L26.5015 26.1268L29.477 20.3515L26.627 23.2517Z"
        fill="#E4751F"
        stroke="#E4751F"
        stroke-linecap="round"
        stroke-linejoin="round"
      />
      <path
        d="M18.5917 20.6654L17.9263 24.2938L18.7549 28.575L18.9432 22.9379L18.5917 20.6654Z"
        fill="#E4751F"
        stroke="#E4751F"
        stroke-linecap="round"
        stroke-linejoin="round"
      />
      <path
        d="M22.421 20.6654L22.082 22.9253L22.2327 28.575L23.0739 24.2938L22.421 20.6654Z"
        fill="#E4751F"
        stroke="#E4751F"
        stroke-linecap="round"
        stroke-linejoin="round"
      />
      <path
        d="M23.0736 24.2938L22.2324 28.575L22.8351 28.9893L26.5011 26.1268L26.6266 23.2517L23.0736 24.2938Z"
        fill="#F6851B"
        stroke="#F6851B"
        stroke-linecap="round"
        stroke-linejoin="round"
      />
      <path
        d="M14.3857 23.2517L14.4862 26.1268L18.1522 28.9893L18.7549 28.575L17.9262 24.2938L14.3857 23.2517Z"
        fill="#F6851B"
        stroke="#F6851B"
        stroke-linecap="round"
        stroke-linejoin="round"
      />
      <path
        d="M23.1366 32.9316L23.1742 31.764L22.8604 31.4878H18.1271L17.8384 31.764L17.8635 32.9316L13.9087 31.0609L15.2897 32.1908L18.0895 34.1368H22.898L25.7103 32.1908L27.0914 31.0609L23.1366 32.9316Z"
        fill="#C0AD9E"
        stroke="#C0AD9E"
        stroke-linecap="round"
        stroke-linejoin="round"
      />
      <path
        d="M22.8352 28.9893L22.2326 28.575H18.7549L18.1523 28.9893L17.8384 31.764L18.1271 31.4878H22.8604L23.1742 31.764L22.8352 28.9893Z"
        fill="#161616"
        stroke="#161616"
        stroke-linecap="round"
        stroke-linejoin="round"
      />
      <path
        d="M35.4406 14.3377L36.5078 9.21532L34.9133 4.457L22.8354 13.4212L27.4808 17.3509L34.047 19.2718L35.5034 17.5769L34.8756 17.1249L35.88 16.2084L35.1016 15.6058L36.106 14.8399L35.4406 14.3377Z"
        fill="#763D16"
        stroke="#763D16"
        stroke-linecap="round"
        stroke-linejoin="round"
      />
      <path
        d="M4.49268 9.21532L5.55984 14.3377L4.88188 14.8399L5.88627 15.6058L5.12042 16.2084L6.12482 17.1249L5.49707 17.5769L6.94089 19.2718L13.5071 17.3509L18.1524 13.4212L6.0746 4.457L4.49268 9.21532Z"
        fill="#763D16"
        stroke="#763D16"
        stroke-linecap="round"
        stroke-linejoin="round"
      />
      <path
        d="M34.047 19.2718L27.4807 17.3509L29.477 20.3515L26.5015 26.1268L30.4186 26.0766H36.2566L34.047 19.2718Z"
        fill="#F6851B"
        stroke="#F6851B"
        stroke-linecap="round"
        stroke-linejoin="round"
      />
      <path
        d="M13.5071 17.3509L6.9409 19.2718L4.75635 26.0766H10.5818L14.4864 26.1268L11.5235 20.3515L13.5071 17.3509Z"
        fill="#F6851B"
        stroke="#F6851B"
        stroke-linecap="round"
        stroke-linejoin="round"
      />
      <path
        d="M22.421 20.6654L22.8353 13.4212L24.7436 8.26114H16.269L18.1523 13.4212L18.5917 20.6654L18.7424 22.9504L18.7549 28.575H22.2326L22.2577 22.9504L22.421 20.6654Z"
        fill="#F6851B"
        stroke="#F6851B"
        stroke-linecap="round"
        stroke-linejoin="round"
      />
    </svg>