 <svg
      width="26"
      height="28"
      viewBox="0 0 26 28"
      fill="none"
      xmlns="http://www.w3.org/2000/svg"
    >
      <path
        d="M12.9473 3.24048C16.5646 6.04441 20.713 5.87138 21.8981 5.87138C21.6393 21.8188 19.6637 19.6942 12.9473 24.1658C6.23079 19.6948 4.26744 21.8188 4.00977 5.87138C5.18093 5.87138 9.3299 6.04441 12.9473 3.24048Z"
        stroke="#3375BB"
        stroke-width="0.5"
      />
      <path
        d="M12.9472 3.24053L13.4696 2.56524C13.32 2.44951 13.1363 2.38672 12.9472 2.38672C12.7582 2.38672 12.5745 2.44951 12.4249 2.56524L12.9472 3.24053ZM21.8981 5.87143L22.7524 5.88537C22.7541 5.77201 22.7334 5.65943 22.6912 5.55418C22.6491 5.44894 22.5864 5.35313 22.5069 5.27235C22.4274 5.19156 22.3327 5.12741 22.2281 5.08362C22.1236 5.03983 22.0114 5.01729 21.8981 5.0173V5.87143ZM12.9472 24.1658L12.4743 24.8771C12.6143 24.9706 12.7789 25.0204 12.9472 25.0204C13.1156 25.0204 13.2802 24.9706 13.4202 24.8771L12.9472 24.1658ZM4.00974 5.87143V5.0173C3.89647 5.01737 3.78435 5.03997 3.67989 5.08379C3.57543 5.12761 3.48072 5.19177 3.40128 5.27255C3.32184 5.35333 3.25924 5.44911 3.21714 5.55432C3.17504 5.65952 3.15427 5.77206 3.15604 5.88537L4.00974 5.87143ZM12.4249 3.91582C16.3 6.9195 20.7339 6.72614 21.8987 6.72614L21.8981 5.87143V5.0173C20.6933 5.0173 16.8304 5.16943 13.4707 2.56524L12.4249 3.91582ZM21.045 5.8575C20.9811 9.82563 20.8128 12.6249 20.4919 14.6984C20.1744 16.7504 19.7212 17.9796 19.1373 18.8436C18.5459 19.7407 17.8025 20.2732 16.7051 20.9305C15.596 21.5947 14.1956 22.3107 12.4748 23.4545L13.4202 24.8771C15.0574 23.7855 16.423 23.0899 17.582 22.3966C18.7502 21.6958 19.7775 20.9247 20.5522 19.8005C21.3346 18.6427 21.843 17.1342 22.1772 14.9597C22.5092 12.8067 22.6856 9.89124 22.7512 5.88537L21.045 5.8575ZM13.4202 23.4545C11.6995 22.3107 10.2997 21.5965 9.19233 20.9305C8.0943 20.2738 7.35376 19.7413 6.76412 18.8442C6.18376 17.9808 5.72992 16.7539 5.41363 14.699C5.09327 12.6249 4.92613 9.82563 4.86171 5.8575L3.1543 5.88537C3.21988 9.89182 3.39515 12.8067 3.72595 14.9591C4.06081 17.1336 4.56805 18.6421 5.35095 19.7999C6.1234 20.9241 7.15006 21.6958 8.31715 22.3966C9.47439 23.0893 10.8388 23.7855 12.4766 24.8771L13.4202 23.4545ZM4.008 6.72614C5.16117 6.72614 9.5951 6.9195 13.4678 3.91582L12.4232 2.56524C9.06291 5.16943 5.19948 5.0173 4.008 5.0173V6.72614Z"
        fill="#3375BB"
      />
      <path
        d="M21.8981 5.87143L22.7524 5.88537C22.7541 5.77201 22.7334 5.65943 22.6912 5.55418C22.6491 5.44894 22.5864 5.35313 22.5069 5.27235C22.4274 5.19156 22.3327 5.12741 22.2281 5.08362C22.1236 5.03983 22.0114 5.01729 21.8981 5.0173M21.8981 5.87143V5.0173M21.8981 5.87143L21.8987 6.72614C20.7339 6.72614 16.3 6.9195 12.4249 3.91582L13.4707 2.56524C16.8304 5.16943 20.6933 5.0173 21.8981 5.0173M13.4202 24.8771C13.2802 24.9706 13.1156 25.0204 12.9472 25.0204C12.7789 25.0204 12.6143 24.9706 12.4743 24.8771L12.9472 24.1658L13.4202 24.8771ZM13.4202 24.8771L12.4748 23.4545C14.1956 22.3107 15.596 21.5947 16.7051 20.9305C17.8025 20.2732 18.5459 19.7407 19.1373 18.8436C19.7212 17.9796 20.1744 16.7504 20.4919 14.6984C20.8128 12.6249 20.9811 9.82563 21.045 5.8575L22.7512 5.88537C22.6856 9.89124 22.5092 12.8067 22.1772 14.9597C21.843 17.1342 21.3346 18.6427 20.5522 19.8005C19.7775 20.9247 18.7502 21.6958 17.582 22.3966C16.423 23.0899 15.0574 23.7855 13.4202 24.8771ZM12.9472 3.24053L13.4696 2.56524C13.32 2.44951 13.1363 2.38672 12.9472 2.38672C12.7582 2.38672 12.5745 2.44951 12.4249 2.56524L12.9472 3.24053ZM4.00974 5.87143V5.0173C3.89647 5.01737 3.78435 5.03997 3.67989 5.08379C3.57543 5.12761 3.48072 5.19177 3.40128 5.27255C3.32184 5.35333 3.25924 5.44911 3.21714 5.55432C3.17504 5.65952 3.15427 5.77206 3.15604 5.88537L4.00974 5.87143ZM13.4202 23.4545C11.6995 22.3107 10.2997 21.5965 9.19233 20.9305C8.0943 20.2738 7.35376 19.7413 6.76412 18.8442C6.18376 17.9808 5.72992 16.7539 5.41363 14.699C5.09327 12.6249 4.92613 9.82563 4.86171 5.8575L3.1543 5.88537C3.21988 9.89182 3.39515 12.8067 3.72595 14.9591C4.06081 17.1336 4.56805 18.6421 5.35095 19.7999C6.1234 20.9241 7.15006 21.6958 8.31715 22.3966C9.47439 23.0893 10.8388 23.7855 12.4766 24.8771L13.4202 23.4545ZM4.008 6.72614C5.16117 6.72614 9.5951 6.9195 13.4678 3.91582L12.4232 2.56524C9.06291 5.16943 5.19948 5.0173 4.008 5.0173V6.72614Z"
        stroke="#3375BB"
        stroke-width="0.5"
      />
    </svg>