<svg
      width="41"
      height="40"
      viewBox="0 0 41 40"
      fill="none"
      xmlns="http://www.w3.org/2000/svg"
    >
      <g clip-path="url(#clip0_86_21982)">
        <path
          d="M8.68557 11.5876C15.201 5.20618 25.768 5.20618 32.2835 11.5876L33.067 12.3505C33.3969 12.6701 33.3969 13.1856 33.067 13.5052L30.3866 16.134C30.2216 16.2887 29.9639 16.2887 29.799 16.134L28.7165 15.0722C24.1701 10.6186 16.799 10.6186 12.2526 15.0722L11.0979 16.2062C10.933 16.3608 10.6753 16.3608 10.5103 16.2062L7.81959 13.5876C7.48969 13.268 7.48969 12.7526 7.81959 12.433L8.68557 11.5876ZM37.8299 17.0206L40.2216 19.3608C40.5515 19.6804 40.5515 20.1959 40.2216 20.5155L29.4485 31.0619C29.1186 31.3814 28.5928 31.3814 28.2732 31.0619L20.634 23.5773C20.5515 23.4948 20.4175 23.4948 20.3351 23.5773L12.6959 31.0619C12.366 31.3814 11.8402 31.3814 11.5206 31.0619L0.747423 20.5155C0.417526 20.1959 0.417526 19.6804 0.747423 19.3608L3.13918 17.0206C3.46907 16.701 3.99485 16.701 4.31443 17.0206L11.9536 24.5052C12.0361 24.5876 12.1701 24.5876 12.2526 24.5052L19.8918 17.0206C20.2216 16.701 20.7474 16.701 21.067 17.0206L28.7062 24.5052C28.7887 24.5876 28.9227 24.5876 29.0052 24.5052L36.6443 17.0206C36.9742 16.701 37.5 16.701 37.8299 17.0206Z"
          fill="#3B99FC"
        />
      </g>
      <defs>
        <clipPath id="clip0_86_21982">
          <rect width="40" height="40" fill="white" transform="translate(0.5)" />
        </clipPath>
      </defs>
</svg>