<?xml version="1.0" standalone="no"?>
<!DOCTYPE svg PUBLIC "-//W3C//DTD SVG 20010904//EN"
 "http://www.w3.org/TR/2001/REC-SVG-20010904/DTD/svg10.dtd">
<svg width="64" height="64" viewBox="0 0 64 64" fill="none" xmlns="http://www.w3.org/2000/svg">
<rect width="64" height="64" fill="#171A1F"/>
<path d="M30.9239 10.1954C33.6441 10.1954 35.8493 12.4304 35.8493 15.1874V16.8514C35.8493 19.6084 33.6441 21.8433 30.9239 21.8433C28.2037 21.8433 25.9985 19.6084 25.9985 16.8514V15.1874C25.9985 12.4304 28.2037 10.1954 30.9239 10.1954Z" fill="#496FA7"/>
<path d="M22.8508 21.7706C22.8508 19.0136 20.6456 16.7787 17.9253 16.7787C15.2051 16.7787 13 19.0136 13 21.7706V23.4346C13 26.1916 15.2051 28.4266 17.9253 28.4266C20.6456 28.4266 22.8508 26.1916 22.8508 23.4346V21.7706Z" fill="#496FA7"/>
<path d="M30.9239 23.3623C33.6441 23.3623 35.8493 25.5973 35.8493 28.3543V41.6662C35.8493 44.4232 33.6441 46.6582 30.9239 46.6582C28.2037 46.6582 25.9985 44.4232 25.9985 41.6662V28.3543C25.9985 25.5973 28.2037 23.3623 30.9239 23.3623Z" fill="#496FA7"/>
<path d="M45.587 8C48.5765 8 50.9999 10.4563 50.9999 13.4862V50.7921C50.9999 53.822 48.5765 56.2782 45.587 56.2782C42.5974 56.2782 40.174 53.822 40.174 50.7921V13.4862C40.174 10.4563 42.5974 8 45.587 8Z" fill="#496FA7"/>
</svg>

