<svg width="33" height="32" viewBox="0 0 33 32" fill="none" xmlns="http://www.w3.org/2000/svg">
<path d="M28.3265 19.1209C28.0732 19.2928 27.7775 19.3943 27.4706 19.4146C27.1637 19.4349 26.8569 19.3733 26.5826 19.2363C25.9386 18.8778 25.5915 18.0373 25.5915 16.892V13.3817C25.5915 11.6967 24.914 10.4977 23.7807 10.1723C21.8654 9.62019 20.4352 11.9315 19.8832 12.8008L16.4958 18.2021V11.6101C16.4582 10.0899 15.9564 9.17935 15.0071 8.90743C14.3798 8.72615 13.4388 8.80031 12.523 10.1764L4.94956 22.1532C3.94188 20.2538 3.41939 18.1411 3.42734 15.9979C3.42734 8.77971 9.28202 2.90872 16.4958 2.90872C23.7096 2.90872 29.5852 8.77971 29.5852 15.9979V16.035C29.5852 16.035 29.5852 16.0597 29.5852 16.0721C29.6563 17.4688 29.1963 18.5812 28.3306 19.1209H28.3265ZM32.5084 16.0021V15.932C32.4498 7.13583 25.2904 0 16.4958 0C7.70125 0 0.5 7.17703 0.5 15.9979C0.5 24.8188 7.67616 32 16.4958 32C20.5409 31.9998 24.4321 30.4723 27.3688 27.7317C27.6538 27.4671 27.8216 27.1025 27.8357 26.7169C27.8498 26.3313 27.7091 25.9558 27.4441 25.6717C27.3172 25.5335 27.1639 25.4214 26.993 25.3418C26.822 25.2622 26.6368 25.2166 26.4479 25.2078C26.259 25.199 26.0702 25.2271 25.8924 25.2904C25.7145 25.3538 25.5512 25.4512 25.4117 25.5769C24.1473 26.7585 22.6536 27.6762 21.0203 28.2749C19.387 28.8736 17.6477 29.1409 15.9069 29.0609C14.1661 28.9809 12.4597 28.5551 10.8901 27.8091C9.32045 27.0632 7.92003 26.0124 6.77287 24.72L13.5894 13.9256V18.9067C13.5894 21.3004 14.5303 22.0749 15.3207 22.3015C16.1111 22.5281 17.3197 22.3716 18.5868 20.3445L22.3505 14.3417C22.4676 14.1481 22.5805 13.9833 22.6809 13.8391V16.892C22.6809 19.1291 23.5925 20.9172 25.19 21.7989C25.9164 22.1852 26.735 22.3719 27.5598 22.3393C28.3846 22.3066 29.1853 22.0559 29.8779 21.6135C31.6343 20.4887 32.592 18.4535 32.4916 16.0021H32.5084Z" fill="white"/>
</svg>
