<svg width="29" height="28" viewBox="0 0 29 28" fill="none" xmlns="http://www.w3.org/2000/svg">
<path d="M22.9834 6.21847C21.4318 5.49514 19.7518 4.97014 18.0018 4.6668C17.9864 4.66631 17.9712 4.66919 17.957 4.67524C17.9429 4.68128 17.9303 4.69035 17.9201 4.7018C17.7101 5.0868 17.4651 5.58847 17.3018 5.97347C15.4456 5.69347 13.5579 5.69347 11.7018 5.97347C11.5384 5.5768 11.2934 5.0868 11.0718 4.7018C11.0601 4.67847 11.0251 4.6668 10.9901 4.6668C9.2401 4.97014 7.57176 5.49514 6.00843 6.21847C5.99676 6.21847 5.9851 6.23014 5.97343 6.2418C2.8001 10.9901 1.9251 15.6101 2.35676 20.1835C2.35676 20.2068 2.36843 20.2301 2.39176 20.2418C4.49176 21.7818 6.5101 22.7151 8.5051 23.3335C8.5401 23.3451 8.5751 23.3335 8.58676 23.3101C9.05343 22.6685 9.47343 21.9918 9.8351 21.2801C9.85843 21.2335 9.8351 21.1868 9.78843 21.1751C9.12343 20.9185 8.49343 20.6151 7.8751 20.2651C7.82843 20.2418 7.82843 20.1718 7.86343 20.1368C7.99176 20.0435 8.1201 19.9385 8.24843 19.8451C8.27176 19.8218 8.30676 19.8218 8.3301 19.8335C12.3434 21.6651 16.6718 21.6651 20.6384 19.8335C20.6618 19.8218 20.6968 19.8218 20.7201 19.8451C20.8484 19.9501 20.9768 20.0435 21.1051 20.1485C21.1518 20.1835 21.1518 20.2535 21.0934 20.2768C20.4868 20.6385 19.8451 20.9301 19.1801 21.1868C19.1334 21.1985 19.1218 21.2568 19.1334 21.2918C19.5068 22.0035 19.9268 22.6801 20.3818 23.3218C20.4168 23.3335 20.4518 23.3451 20.4868 23.3335C22.4934 22.7151 24.5118 21.7818 26.6118 20.2418C26.6351 20.2301 26.6468 20.2068 26.6468 20.1835C27.1601 14.8985 25.7951 10.3135 23.0301 6.2418C23.0184 6.23014 23.0068 6.21847 22.9834 6.21847ZM10.4418 17.3951C9.2401 17.3951 8.23676 16.2868 8.23676 14.9218C8.23676 13.5568 9.21676 12.4485 10.4418 12.4485C11.6784 12.4485 12.6584 13.5685 12.6468 14.9218C12.6468 16.2868 11.6668 17.3951 10.4418 17.3951ZM18.5734 17.3951C17.3718 17.3951 16.3684 16.2868 16.3684 14.9218C16.3684 13.5568 17.3484 12.4485 18.5734 12.4485C19.8101 12.4485 20.7901 13.5685 20.7784 14.9218C20.7784 16.2868 19.8101 17.3951 18.5734 17.3951Z" fill="white"/>
</svg>
