<svg width="29" height="28" viewBox="0 0 29 28" fill="none" xmlns="http://www.w3.org/2000/svg">
<path d="M14.5026 2.33325C12.9705 2.33325 11.4534 2.63502 10.038 3.22132C8.6225 3.80763 7.33638 4.66699 6.25303 5.75034C4.0651 7.93826 2.83594 10.9057 2.83594 13.9999C2.83594 19.1566 6.18427 23.5316 10.8159 25.0833C11.3993 25.1766 11.5859 24.8149 11.5859 24.4999V22.5282C8.35427 23.2283 7.66594 20.9649 7.66594 20.9649C7.12927 19.6116 6.37094 19.2499 6.37094 19.2499C5.30927 18.5266 6.4526 18.5499 6.4526 18.5499C7.61927 18.6316 8.2376 19.7516 8.2376 19.7516C9.2526 21.5249 10.9676 20.9999 11.6326 20.7199C11.7376 19.9616 12.0409 19.4483 12.3676 19.1566C9.7776 18.8649 7.05927 17.8616 7.05927 13.4166C7.05927 12.1216 7.5026 11.0833 8.26094 10.2549C8.14427 9.96325 7.73594 8.74992 8.3776 7.17492C8.3776 7.17492 9.3576 6.85992 11.5859 8.36492C12.5076 8.10825 13.5109 7.97992 14.5026 7.97992C15.4943 7.97992 16.4976 8.10825 17.4193 8.36492C19.6476 6.85992 20.6276 7.17492 20.6276 7.17492C21.2693 8.74992 20.8609 9.96325 20.7443 10.2549C21.5026 11.0833 21.9459 12.1216 21.9459 13.4166C21.9459 17.8733 19.2159 18.8533 16.6143 19.1449C17.0343 19.5066 17.4193 20.2183 17.4193 21.3033V24.4999C17.4193 24.8149 17.6059 25.1883 18.2009 25.0833C22.8326 23.5199 26.1693 19.1566 26.1693 13.9999C26.1693 12.4678 25.8675 10.9507 25.2812 9.53528C24.6949 8.11981 23.8355 6.83369 22.7522 5.75034C21.6688 4.66699 20.3827 3.80763 18.9672 3.22132C17.5518 2.63502 16.0347 2.33325 14.5026 2.33325Z" fill="white"/>
</svg>
