<svg width="32" height="32" viewBox="0 0 32 32" fill="none" xmlns="http://www.w3.org/2000/svg">
<path fill-rule="evenodd" clip-rule="evenodd" d="M21.9996 4H9.99985C6.70023 4 4 6.70023 4 9.99985V22.0001C4 25.2989 6.70023 28 9.99985 28H21.9996C25.2992 28 27.9994 25.2989 27.9994 22.0001V9.99985C27.9994 6.70023 25.2992 4 21.9996 4ZM25.9994 22.0001C25.9994 24.2051 24.2057 26 21.9996 26H9.99985C7.79461 26 6.00005 24.2051 6.00005 22.0001V9.99985C6.00005 7.79432 7.79461 6.00005 9.99985 6.00005H21.9996C24.2057 6.00005 25.9994 7.79432 25.9994 9.99985V22.0001ZM22.5006 10.9999C23.329 10.9999 24.0005 10.3284 24.0005 9.49996C24.0005 8.67156 23.329 8 22.5006 8C21.6722 8 21.0006 8.67156 21.0006 9.49996C21.0006 10.3284 21.6722 10.9999 22.5006 10.9999ZM9.99988 15.9999C9.99988 12.6858 12.6854 10 15.9997 10C19.3131 10 21.9996 12.6858 21.9996 15.9999C21.9996 19.3127 19.3131 22.0003 15.9997 22.0003C12.6854 22.0003 9.99988 19.3127 9.99988 15.9999ZM11.9999 15.9999C11.9999 18.2093 13.7909 20.0002 15.9997 20.0002C18.2086 20.0002 19.9995 18.2093 19.9995 15.9999C19.9995 13.7904 18.2086 12 15.9997 12C13.7909 12 11.9999 13.7904 11.9999 15.9999Z" fill="white"/>
</svg>
