<svg width="29" height="28" viewBox="0 0 29 28" fill="none" xmlns="http://www.w3.org/2000/svg">
<g clip-path="url(#clip0_37_7385)">
<path d="M28.966 14.315V14.3486C28.966 14.9567 28.7912 15.5246 28.49 16.005L28.4978 15.9916C28.1964 16.4807 27.7653 16.8765 27.2524 17.1351L27.2344 17.143C27.3554 17.5943 27.4248 18.1118 27.4248 18.6471V18.6673C27.4167 20.3437 26.8142 21.9617 25.7247 23.2358L25.7325 23.2257C24.5155 24.6808 22.9561 25.8108 21.1943 26.514L21.117 26.5409C19.2858 27.3092 17.1578 27.7561 14.9245 27.7561L14.7532 27.755H14.7621L14.5986 27.7561C12.3687 27.7561 10.244 27.3092 8.30756 26.5006L8.41508 26.5409C6.63332 25.8415 5.05449 24.7081 3.82196 23.2436L3.8074 23.2257C2.7227 21.9542 2.12353 20.3396 2.1162 18.6684V18.6606C2.1162 18.1342 2.17892 17.6212 2.29652 17.1306L2.28756 17.1754C1.75834 16.9175 1.31039 16.5187 0.992841 16.023L0.985001 16.0106C0.661536 15.5052 0.490454 14.9173 0.492201 14.3172C0.492201 13.447 0.843881 12.6585 1.41396 12.0873C1.6969 11.793 2.03642 11.5589 2.41212 11.3992C2.78783 11.2394 3.19195 11.1573 3.6002 11.1577H3.6562H3.65284H3.69652C4.5914 11.1577 5.3978 11.5418 5.9578 12.1534L5.96004 12.1556C8.36828 10.5061 11.2127 9.6102 14.1316 9.58184H14.1405L15.984 1.30504C16.0161 1.16772 16.101 1.04859 16.2204 0.973517L16.2226 0.972397C16.2824 0.93033 16.3505 0.901482 16.4224 0.887771C16.4942 0.87406 16.5681 0.875801 16.6392 0.892877L16.6359 0.891757L22.498 2.17864C22.6928 1.78328 22.9852 1.46296 23.3458 1.24008L23.3559 1.23448C23.7132 1.01048 24.1477 0.877197 24.6136 0.877197C25.2688 0.877197 25.8636 1.1404 26.2948 1.56824C26.726 1.98152 26.9936 2.5628 26.9936 3.2068V3.24712V3.24488V3.27848C26.9936 3.92584 26.726 4.51048 26.2948 4.92712L26.2936 4.92824C26.073 5.1503 25.8105 5.32641 25.5214 5.44637C25.2323 5.56633 24.9222 5.62776 24.6092 5.62712C23.9809 5.62767 23.378 5.37918 22.9325 4.93608C22.7135 4.72359 22.5395 4.46922 22.4208 4.18812C22.3021 3.90701 22.2411 3.6049 22.2415 3.29976V3.2572V3.25944L16.9349 2.08344L15.2829 9.58072C18.3596 9.60312 21.2111 10.5495 23.5788 12.1567L23.5261 12.1231C23.8202 11.8163 24.1733 11.5723 24.5643 11.4058C24.9552 11.2393 25.3759 11.1537 25.8008 11.1543C26.6744 11.1543 27.4652 11.5094 28.0375 12.0839C28.6076 12.6394 28.9615 13.4156 28.9615 14.2735V14.3172V14.315H28.966ZM7.13828 17.4756V17.5114C7.13828 18.1566 7.4026 18.7401 7.82932 19.159C8.04093 19.3803 8.29527 19.5563 8.57692 19.6765C8.85857 19.7966 9.16168 19.8583 9.46788 19.8578H9.5082H9.50596C10.1379 19.8572 10.7438 19.6059 11.1906 19.1591C11.6374 18.7123 11.8887 18.1064 11.8893 17.4745V17.4364C11.8893 16.7924 11.6216 16.2111 11.1904 15.799L11.1893 15.7978C10.9746 15.5787 10.7183 15.4046 10.4353 15.2859C10.1524 15.1673 9.84861 15.1064 9.5418 15.1068H9.50372H9.50596C8.87983 15.1121 8.28083 15.363 7.83797 15.8057C7.39511 16.2483 7.14384 16.8472 7.13828 17.4734V17.4756ZM20.006 23.1159C20.0614 23.0623 20.1056 22.9981 20.1357 22.9271C20.1658 22.8561 20.1814 22.7798 20.1814 22.7026C20.1814 22.6255 20.1658 22.5492 20.1357 22.4782C20.1056 22.4072 20.0614 22.3429 20.006 22.2894C19.9561 22.2387 19.8966 22.1986 19.8311 22.1713C19.7655 22.144 19.6951 22.13 19.624 22.1303H19.6084H19.6005C19.4505 22.1301 19.3059 22.187 19.1962 22.2894C18.6654 22.7838 18.0092 23.1231 17.2989 23.2705L17.2732 23.275C15.5804 23.7041 13.8068 23.6987 12.1167 23.2593L12.1884 23.275C11.4668 23.1304 10.7996 22.7884 10.2608 22.2871L10.2631 22.2894C10.1535 22.1868 10.0089 22.1299 9.85876 22.1303H9.83748C9.76645 22.1302 9.69611 22.1441 9.63054 22.1715C9.56497 22.1988 9.50549 22.2388 9.45556 22.2894C9.39933 22.3385 9.35425 22.3991 9.32334 22.4671C9.29244 22.5351 9.27642 22.6089 9.27636 22.6836V22.6993C9.27636 22.8628 9.34468 23.0106 9.45556 23.1159C9.98082 23.6107 10.6132 23.9775 11.3036 24.1878L11.3372 24.1967C11.9513 24.4197 12.5878 24.5751 13.2356 24.6604L13.2837 24.666C13.781 24.7138 14.2626 24.7377 14.7285 24.7377C15.1944 24.7377 15.676 24.7138 16.1733 24.666C16.8598 24.5775 17.5344 24.4133 18.1848 24.1766L18.1199 24.1978C18.8246 23.9891 19.4708 23.6186 20.0071 23.1159L20.0048 23.1182L20.006 23.1159ZM19.9589 19.859H19.997C20.641 19.859 21.2223 19.5913 21.6344 19.1601L21.6356 19.159C22.0623 18.7401 22.3266 18.1566 22.3266 17.5114V17.4734V17.4756C22.3213 16.8495 22.0704 16.2505 21.6277 15.8076C21.1851 15.3647 20.5862 15.1135 19.96 15.1079H19.9231C19.278 15.1079 18.6944 15.3722 18.2756 15.799C18.0542 16.0106 17.8782 16.2649 17.7581 16.5466C17.6379 16.8282 17.5762 17.1313 17.5767 17.4375V17.4778V17.4756C17.5773 18.1075 17.8286 18.7134 18.2754 19.1602C18.7222 19.6071 19.3281 19.8584 19.96 19.859H19.9589Z" fill="white"/>
</g>
<defs>
<clipPath id="clip0_37_7385">
<rect width="28" height="28" fill="white" transform="translate(0.5)"/>
</clipPath>
</defs>
</svg>
