<svg width="29" height="28" viewBox="0 0 29 28" fill="none" xmlns="http://www.w3.org/2000/svg">
<path fill-rule="evenodd" clip-rule="evenodd" d="M23.5744 5.16829C23.8627 5.04695 24.1783 5.0051 24.4882 5.0471C24.7982 5.08909 25.0912 5.21341 25.3369 5.40709C25.5825 5.60078 25.7717 5.85676 25.8848 6.14839C25.9979 6.44002 26.0308 6.75664 25.9801 7.06529L23.3341 23.1151C23.0774 24.6633 21.3787 25.5511 19.9589 24.78C18.7712 24.1348 17.0072 23.1408 15.4206 22.1036C14.6272 21.5845 12.1971 19.922 12.4957 18.739C12.7524 17.7275 16.8357 13.9265 19.1691 11.6666C20.0849 10.7788 19.6672 10.2666 18.5857 11.0833C15.9001 13.111 11.5881 16.1945 10.1624 17.0625C8.90472 17.8278 8.24906 17.9585 7.46506 17.8278C6.03472 17.5898 4.70822 17.2211 3.62556 16.772C2.16256 16.1653 2.23372 14.154 3.62439 13.5683L23.5744 5.16829Z" fill="white"/>
</svg>
