<svg width="33" height="23" viewBox="0 0 33 23" fill="none" xmlns="http://www.w3.org/2000/svg">
<path d="M31.8407 3.50587C31.4719 2.13497 30.3911 1.0543 29.0204 0.685158C26.5163 0 16.4996 0 16.4996 0C16.4996 0 6.48341 0 3.9793 0.659181C2.63496 1.02793 1.52774 2.13516 1.15899 3.50587C0.5 6.00978 0.5 11.2026 0.5 11.2026C0.5 11.2026 0.5 16.4215 1.15899 18.8993C1.52813 20.27 2.6086 21.3506 3.9795 21.7198C6.50978 22.4051 16.5 22.4051 16.5 22.4051C16.5 22.4051 26.5163 22.4051 29.0204 21.7459C30.3913 21.377 31.4719 20.2963 31.8411 18.9256C32.4999 16.4215 32.4999 11.2289 32.4999 11.2289C32.4999 11.2289 32.5262 6.00978 31.8407 3.50587ZM13.3106 15.9998V6.40529L21.6399 11.2026L13.3106 15.9998Z" fill="white"/>
</svg>
