<svg width="240" height="32" viewBox="0 0 240 32" fill="none" xmlns="http://www.w3.org/2000/svg">
<path d="M92.1948 7.10689C90.4215 6.28022 88.5015 5.68022 86.5015 5.33356C86.4839 5.333 86.4665 5.33629 86.4504 5.3432C86.4342 5.35011 86.4198 5.36047 86.4081 5.37356C86.1681 5.81356 85.8881 6.38689 85.7015 6.82689C83.5801 6.50689 81.4228 6.50689 79.3015 6.82689C79.1148 6.37356 78.8348 5.81356 78.5815 5.37356C78.5681 5.34689 78.5281 5.33356 78.4881 5.33356C76.4881 5.68022 74.5815 6.28022 72.7948 7.10689C72.7815 7.10689 72.7681 7.12022 72.7548 7.13356C69.1281 12.5602 68.1281 17.8402 68.6215 23.0669C68.6215 23.0936 68.6348 23.1202 68.6615 23.1336C71.0615 24.8936 73.3681 25.9602 75.6481 26.6669C75.6881 26.6802 75.7281 26.6669 75.7415 26.6402C76.2748 25.9069 76.7548 25.1336 77.1681 24.3202C77.1948 24.2669 77.1681 24.2136 77.1148 24.2002C76.3548 23.9069 75.6348 23.5602 74.9281 23.1602C74.8748 23.1336 74.8748 23.0536 74.9148 23.0136C75.0615 22.9069 75.2081 22.7869 75.3548 22.6802C75.3815 22.6536 75.4215 22.6536 75.4481 22.6669C80.0348 24.7602 84.9815 24.7602 89.5148 22.6669C89.5415 22.6536 89.5815 22.6536 89.6081 22.6802C89.7548 22.8002 89.9015 22.9069 90.0481 23.0269C90.1015 23.0669 90.1015 23.1469 90.0348 23.1736C89.3415 23.5869 88.6081 23.9202 87.8481 24.2136C87.7948 24.2269 87.7815 24.2936 87.7948 24.3336C88.2215 25.1469 88.7015 25.9202 89.2215 26.6536C89.2615 26.6669 89.3015 26.6802 89.3415 26.6669C91.6348 25.9602 93.9415 24.8936 96.3415 23.1336C96.3681 23.1202 96.3815 23.0936 96.3815 23.0669C96.9681 17.0269 95.4081 11.7869 92.2481 7.13356C92.2348 7.12022 92.2215 7.10689 92.1948 7.10689ZM77.8615 19.8802C76.4881 19.8802 75.3415 18.6136 75.3415 17.0536C75.3415 15.4936 76.4615 14.2269 77.8615 14.2269C79.2748 14.2269 80.3948 15.5069 80.3815 17.0536C80.3815 18.6136 79.2615 19.8802 77.8615 19.8802ZM87.1548 19.8802C85.7815 19.8802 84.6348 18.6136 84.6348 17.0536C84.6348 15.4936 85.7548 14.2269 87.1548 14.2269C88.5681 14.2269 89.6881 15.5069 89.6748 17.0536C89.6748 18.6136 88.5681 19.8802 87.1548 19.8802Z" fill="white"/>
<path d="M107.6 23C107.467 23 107.4 22.9333 107.4 22.8C107.4 22.6667 107.467 22.6 107.6 22.6H109.04C109.12 22.6 109.187 22.5733 109.24 22.52C109.307 22.4533 109.34 22.38 109.34 22.3V10.2C109.34 10.12 109.307 10.0533 109.24 10C109.187 9.93333 109.12 9.9 109.04 9.9H107.6C107.467 9.9 107.4 9.83333 107.4 9.7C107.4 9.56667 107.467 9.5 107.6 9.5H112.7C113.953 9.5 115.033 9.67333 115.94 10.02C116.86 10.3533 117.62 10.82 118.22 11.42C118.82 12.02 119.26 12.7333 119.54 13.56C119.833 14.3733 119.98 15.2533 119.98 16.2C119.98 17.1467 119.833 18.0333 119.54 18.86C119.26 19.6867 118.82 20.4067 118.22 21.02C117.62 21.6333 116.86 22.12 115.94 22.48C115.033 22.8267 113.953 23 112.7 23H107.6ZM117.3 16.2C117.3 15.2933 117.233 14.4533 117.1 13.68C116.98 12.9067 116.747 12.24 116.4 11.68C116.067 11.12 115.6 10.6867 115 10.38C114.4 10.06 113.633 9.9 112.7 9.9H112.04C111.96 9.9 111.887 9.93333 111.82 10C111.767 10.0533 111.74 10.12 111.74 10.2V22.3C111.74 22.38 111.767 22.4533 111.82 22.52C111.887 22.5733 111.96 22.6 112.04 22.6H112.7C113.633 22.6 114.4 22.44 115 22.12C115.6 21.7867 116.067 21.3333 116.4 20.76C116.747 20.1867 116.98 19.5133 117.1 18.74C117.233 17.9533 117.3 17.1067 117.3 16.2ZM122.675 10.86C122.675 10.5133 122.795 10.22 123.035 9.98C123.288 9.72667 123.588 9.6 123.935 9.6C124.282 9.6 124.575 9.72667 124.815 9.98C125.068 10.22 125.195 10.5133 125.195 10.86C125.195 11.2067 125.068 11.5067 124.815 11.76C124.575 12 124.282 12.12 123.935 12.12C123.588 12.12 123.288 12 123.035 11.76C122.795 11.5067 122.675 11.2067 122.675 10.86ZM125.215 14.8C125.135 14.8267 125.095 14.9133 125.095 15.06V22.3C125.095 22.38 125.122 22.4533 125.175 22.52C125.242 22.5733 125.315 22.6 125.395 22.6H126.355C126.488 22.6 126.555 22.6667 126.555 22.8C126.555 22.9333 126.488 23 126.355 23H121.655C121.522 23 121.455 22.9333 121.455 22.8C121.455 22.6667 121.522 22.6 121.655 22.6H122.595C122.675 22.6 122.742 22.5733 122.795 22.52C122.862 22.4533 122.895 22.38 122.895 22.3V15.48C122.895 15.4 122.862 15.34 122.795 15.3C122.728 15.2467 122.655 15.2267 122.575 15.24L121.615 15.38C121.495 15.4067 121.422 15.36 121.395 15.24C121.368 15.12 121.415 15.0467 121.535 15.02L125.135 14.44C125.242 14.4133 125.315 14.4533 125.355 14.56C125.382 14.6667 125.335 14.7467 125.215 14.8ZM128.547 20.8C128.547 21.4533 128.747 21.9467 129.147 22.28C129.547 22.6 130.127 22.76 130.887 22.76C131.367 22.76 131.754 22.64 132.047 22.4C132.34 22.16 132.487 21.8267 132.487 21.4C132.487 21.04 132.354 20.7667 132.087 20.58C131.834 20.3933 131.52 20.2267 131.147 20.08L130.067 19.68C129.787 19.56 129.527 19.4267 129.287 19.28C129.047 19.12 128.84 18.9333 128.667 18.72C128.507 18.4933 128.38 18.2333 128.287 17.94C128.194 17.6467 128.147 17.3067 128.147 16.92C128.147 16.12 128.387 15.5 128.867 15.06C129.36 14.62 130.034 14.4 130.887 14.4C131.314 14.4 131.68 14.4667 131.987 14.6C132.307 14.7333 132.54 14.8 132.687 14.8C132.86 14.8 132.947 14.7333 132.947 14.6C132.947 14.4667 133.014 14.4 133.147 14.4C133.28 14.4 133.347 14.4667 133.347 14.6V16.8C133.36 16.8667 133.347 16.92 133.307 16.96C133.267 16.9867 133.214 17 133.147 17C133.014 17 132.947 16.9333 132.947 16.8C132.947 16.4533 132.88 16.1533 132.747 15.9C132.627 15.6467 132.467 15.44 132.267 15.28C132.067 15.12 131.84 15 131.587 14.92C131.347 14.84 131.114 14.8 130.887 14.8C130.394 14.8 130.02 14.9133 129.767 15.14C129.514 15.3667 129.387 15.6533 129.387 16C129.387 16.28 129.5 16.5333 129.727 16.76C129.954 16.9733 130.26 17.1533 130.647 17.3L131.947 17.78C132.24 17.8867 132.507 18.0133 132.747 18.16C133 18.3067 133.214 18.4867 133.387 18.7C133.574 18.9133 133.714 19.1667 133.807 19.46C133.914 19.7533 133.967 20.1067 133.967 20.52C133.967 21.3867 133.687 22.0533 133.127 22.52C132.567 22.9733 131.787 23.2 130.787 23.2C130.56 23.2 130.34 23.18 130.127 23.14C129.927 23.1 129.74 23.0533 129.567 23C129.394 22.9467 129.24 22.9 129.107 22.86C128.987 22.82 128.887 22.8 128.807 22.8C128.634 22.8 128.547 22.8667 128.547 23C128.547 23.1333 128.48 23.2 128.347 23.2C128.214 23.2 128.147 23.1333 128.147 23V20.8C128.147 20.6667 128.214 20.6 128.347 20.6C128.48 20.6 128.547 20.6667 128.547 20.8ZM143.154 21.44C142.874 21.9467 142.468 22.3667 141.934 22.7C141.401 23.0333 140.814 23.2 140.174 23.2C139.534 23.2 138.961 23.1 138.454 22.9C137.948 22.6867 137.514 22.3867 137.154 22C136.808 21.6133 136.541 21.1533 136.354 20.62C136.168 20.0867 136.074 19.4867 136.074 18.82C136.074 18.2067 136.174 17.6333 136.374 17.1C136.588 16.5533 136.874 16.08 137.234 15.68C137.608 15.28 138.048 14.9667 138.554 14.74C139.061 14.5133 139.614 14.4 140.214 14.4C140.588 14.4 140.948 14.44 141.294 14.52C141.641 14.5867 141.948 14.7 142.214 14.86C142.494 15.02 142.714 15.22 142.874 15.46C143.034 15.7 143.114 15.98 143.114 16.3C143.114 16.5533 143.028 16.7667 142.854 16.94C142.681 17.1133 142.468 17.2 142.214 17.2C141.868 17.2 141.628 17.0867 141.494 16.86C141.374 16.62 141.314 16.4 141.314 16.2C141.314 15.6933 141.241 15.3333 141.094 15.12C140.948 14.9067 140.688 14.8 140.314 14.8C139.874 14.8 139.528 14.9267 139.274 15.18C139.034 15.4333 138.854 15.7533 138.734 16.14C138.614 16.5267 138.541 16.9667 138.514 17.46C138.488 17.94 138.474 18.4067 138.474 18.86C138.474 19.42 138.501 19.9333 138.554 20.4C138.608 20.8667 138.701 21.2667 138.834 21.6C138.981 21.9333 139.168 22.1933 139.394 22.38C139.634 22.5533 139.928 22.64 140.274 22.64C140.928 22.64 141.454 22.4933 141.854 22.2C142.268 21.9067 142.581 21.5867 142.794 21.24C142.821 21.1867 142.861 21.1533 142.914 21.14C142.968 21.1133 143.028 21.1133 143.094 21.14C143.161 21.18 143.194 21.2333 143.194 21.3C143.194 21.3533 143.181 21.4 143.154 21.44ZM147.302 18.8C147.302 19.2667 147.316 19.7333 147.342 20.2C147.369 20.6667 147.442 21.0867 147.562 21.46C147.696 21.82 147.882 22.12 148.122 22.36C148.376 22.5867 148.722 22.7 149.162 22.7C149.576 22.7 149.902 22.6133 150.142 22.44C150.382 22.2533 150.562 21.9933 150.682 21.66C150.816 21.3267 150.902 20.92 150.942 20.44C150.982 19.9467 151.002 19.4 151.002 18.8C151.002 18.3333 150.982 17.8667 150.942 17.4C150.916 16.9333 150.842 16.52 150.722 16.16C150.602 15.7867 150.416 15.4867 150.162 15.26C149.922 15.02 149.589 14.9 149.162 14.9C148.736 14.9 148.402 15.0133 148.162 15.24C147.922 15.4667 147.736 15.7667 147.602 16.14C147.469 16.5 147.382 16.9133 147.342 17.38C147.316 17.8467 147.302 18.32 147.302 18.8ZM144.902 18.8C144.902 18.2 145.016 17.6333 145.242 17.1C145.469 16.5667 145.776 16.1 146.162 15.7C146.549 15.3 146.996 14.9867 147.502 14.76C148.022 14.52 148.576 14.4 149.162 14.4C149.749 14.4 150.296 14.52 150.802 14.76C151.322 15 151.776 15.32 152.162 15.72C152.549 16.12 152.849 16.5867 153.062 17.12C153.289 17.6533 153.402 18.2133 153.402 18.8C153.402 19.3867 153.289 19.9467 153.062 20.48C152.849 21.0133 152.549 21.48 152.162 21.88C151.776 22.28 151.322 22.6 150.802 22.84C150.296 23.08 149.749 23.2 149.162 23.2C148.562 23.2 148.002 23.08 147.482 22.84C146.976 22.6 146.529 22.28 146.142 21.88C145.756 21.48 145.449 21.0133 145.222 20.48C145.009 19.9467 144.902 19.3867 144.902 18.8ZM158.63 22.3C158.63 22.38 158.657 22.4533 158.71 22.52C158.777 22.5733 158.85 22.6 158.93 22.6H159.89C160.023 22.6 160.09 22.6667 160.09 22.8C160.09 22.9333 160.023 23 159.89 23H155.19C155.057 23 154.99 22.9333 154.99 22.8C154.99 22.6667 155.057 22.6 155.19 22.6H156.13C156.21 22.6 156.277 22.5733 156.33 22.52C156.397 22.4533 156.43 22.38 156.43 22.3V15.46C156.43 15.38 156.397 15.32 156.33 15.28C156.263 15.2267 156.19 15.2067 156.11 15.22L155.15 15.38C155.03 15.4067 154.957 15.36 154.93 15.24C154.903 15.12 154.95 15.0467 155.07 15.02L158.67 14.44C158.777 14.4133 158.85 14.4533 158.89 14.56C158.917 14.6667 158.87 14.7467 158.75 14.8C158.67 14.8267 158.63 14.9133 158.63 15.06V16.4H158.67C158.883 15.7467 159.183 15.2533 159.57 14.92C159.957 14.5733 160.397 14.4 160.89 14.4C161.21 14.4 161.477 14.46 161.69 14.58C161.903 14.6867 162.07 14.82 162.19 14.98C162.323 15.14 162.41 15.3133 162.45 15.5C162.49 15.6867 162.503 15.8533 162.49 16C162.463 16.2133 162.397 16.4 162.29 16.56C162.183 16.72 161.983 16.8 161.69 16.8C161.343 16.8 161.123 16.7067 161.03 16.52C160.937 16.3333 160.883 16.1267 160.87 15.9C160.857 15.6733 160.837 15.4667 160.81 15.28C160.783 15.0933 160.65 15 160.41 15C160.157 15 159.923 15.1067 159.71 15.32C159.497 15.5333 159.31 15.8267 159.15 16.2C158.99 16.5733 158.863 17.02 158.77 17.54C158.677 18.0467 158.63 18.6 158.63 19.2V22.3ZM165.818 18.94C165.818 19.3267 165.831 19.74 165.858 20.18C165.898 20.6067 165.965 21.0133 166.058 21.4C166.165 21.7733 166.318 22.0867 166.518 22.34C166.718 22.58 166.991 22.7 167.338 22.7C167.765 22.7 168.098 22.5667 168.338 22.3C168.578 22.02 168.751 21.6933 168.858 21.32C168.978 20.9467 169.051 20.5667 169.078 20.18C169.105 19.78 169.118 19.4533 169.118 19.2V16.1C169.078 16.02 169.018 15.9133 168.938 15.78C168.858 15.6467 168.751 15.52 168.618 15.4C168.485 15.2667 168.325 15.1533 168.138 15.06C167.965 14.9533 167.765 14.9 167.538 14.9C167.165 14.9 166.865 15.0333 166.638 15.3C166.411 15.5533 166.238 15.88 166.118 16.28C165.998 16.68 165.918 17.12 165.878 17.6C165.838 18.0667 165.818 18.5133 165.818 18.94ZM169.118 15.2V10.5C169.118 10.42 169.085 10.36 169.018 10.32C168.951 10.2667 168.878 10.2467 168.798 10.26L167.838 10.38C167.718 10.4067 167.645 10.36 167.618 10.24C167.591 10.12 167.638 10.0467 167.758 10.02L171.358 9.44C171.465 9.41333 171.538 9.45333 171.578 9.56C171.605 9.66667 171.558 9.74667 171.438 9.8C171.358 9.82667 171.318 9.91333 171.318 10.06V21.8C171.318 22.1067 171.365 22.32 171.458 22.44C171.565 22.5467 171.718 22.6 171.918 22.6C172.105 22.6 172.265 22.5467 172.398 22.44C172.531 22.32 172.631 22.1867 172.698 22.04C172.738 21.9467 172.811 21.92 172.918 21.96C173.011 22 173.031 22.0733 172.978 22.18C172.791 22.5667 172.511 22.8333 172.138 22.98C171.778 23.1267 171.365 23.2 170.898 23.2C170.498 23.2 170.125 23.1 169.778 22.9C169.445 22.6867 169.238 22.3533 169.158 21.9H169.118C169.011 22.1533 168.871 22.3667 168.698 22.54C168.538 22.7 168.358 22.8333 168.158 22.94C167.958 23.0333 167.751 23.1 167.538 23.14C167.338 23.18 167.138 23.2 166.938 23.2C166.351 23.2 165.838 23.0733 165.398 22.82C164.958 22.5667 164.591 22.2333 164.298 21.82C164.005 21.4067 163.785 20.94 163.638 20.42C163.491 19.9 163.418 19.3667 163.418 18.82C163.418 18.22 163.498 17.6533 163.658 17.12C163.831 16.5733 164.078 16.1 164.398 15.7C164.718 15.3 165.111 14.9867 165.578 14.76C166.058 14.52 166.611 14.4 167.238 14.4C167.558 14.4 167.878 14.4667 168.198 14.6C168.518 14.72 168.811 14.9267 169.078 15.22L169.118 15.2Z" fill="white"/>
</svg>
