<svg width="240" height="32" viewBox="0 0 240 32" fill="none" xmlns="http://www.w3.org/2000/svg">
<path d="M85.5013 2.6665C83.7503 2.6665 82.0165 3.01138 80.3989 3.68144C78.7812 4.35151 77.3113 5.33363 76.0732 6.57175C73.5727 9.07223 72.168 12.4636 72.168 15.9998C72.168 21.8932 75.9946 26.8932 81.288 28.6665C81.9546 28.7732 82.168 28.3598 82.168 27.9998V25.7465C78.4746 26.5465 77.688 23.9598 77.688 23.9598C77.0746 22.4132 76.208 21.9998 76.208 21.9998C74.9946 21.1732 76.3013 21.1998 76.3013 21.1998C77.6346 21.2932 78.3413 22.5732 78.3413 22.5732C79.5013 24.5998 81.4613 23.9998 82.2213 23.6798C82.3413 22.8132 82.688 22.2265 83.0613 21.8932C80.1013 21.5598 76.9946 20.4132 76.9946 15.3332C76.9946 13.8532 77.5013 12.6665 78.368 11.7198C78.2346 11.3865 77.768 9.99984 78.5013 8.19984C78.5013 8.19984 79.6213 7.83984 82.168 9.55984C83.2213 9.2665 84.368 9.11984 85.5013 9.11984C86.6346 9.11984 87.7813 9.2665 88.8346 9.55984C91.3813 7.83984 92.5013 8.19984 92.5013 8.19984C93.2346 9.99984 92.768 11.3865 92.6346 11.7198C93.5013 12.6665 94.008 13.8532 94.008 15.3332C94.008 20.4265 90.888 21.5465 87.9146 21.8798C88.3946 22.2932 88.8346 23.1065 88.8346 24.3465V27.9998C88.8346 28.3598 89.048 28.7865 89.728 28.6665C95.0213 26.8798 98.8346 21.8932 98.8346 15.9998C98.8346 14.2489 98.4898 12.5151 97.8197 10.8974C97.1496 9.27972 96.1675 7.80986 94.9294 6.57175C93.6913 5.33363 92.2214 4.35151 90.6037 3.68144C88.9861 3.01138 87.2523 2.6665 85.5013 2.6665Z" fill="white"/>
<path d="M122.04 20.6C122.173 20.6 122.24 20.6667 122.24 20.8C122.24 20.9333 122.173 21 122.04 21C121.667 21 121.413 21.0133 121.28 21.04C121.147 21.0667 121.02 21.1533 120.9 21.3C120.5 21.7667 120.073 22.1333 119.62 22.4C119.167 22.6667 118.733 22.8667 118.32 23C117.92 23.1333 117.56 23.2133 117.24 23.24C116.933 23.28 116.72 23.3 116.6 23.3C115.667 23.3 114.813 23.1 114.04 22.7C113.28 22.2867 112.627 21.7467 112.08 21.08C111.547 20.4133 111.133 19.66 110.84 18.82C110.547 17.98 110.4 17.12 110.4 16.24C110.4 15.36 110.547 14.5 110.84 13.66C111.133 12.82 111.547 12.0733 112.08 11.42C112.627 10.7533 113.28 10.22 114.04 9.82C114.813 9.40667 115.667 9.2 116.6 9.2C116.72 9.2 116.887 9.21333 117.1 9.24C117.327 9.26667 117.567 9.31333 117.82 9.38C118.087 9.43333 118.36 9.51333 118.64 9.62C118.933 9.71333 119.22 9.84 119.5 10C119.66 10.0933 119.787 10.1667 119.88 10.22C119.987 10.2733 120.127 10.3 120.3 10.3C120.447 10.3 120.553 10.2467 120.62 10.14C120.687 10.0333 120.74 9.92 120.78 9.8C120.82 9.68 120.853 9.56667 120.88 9.46C120.92 9.35333 120.993 9.3 121.1 9.3C121.233 9.3 121.3 9.4 121.3 9.6V13.7C121.3 13.78 121.28 13.8533 121.24 13.92C121.2 13.9733 121.14 14 121.06 14C120.98 14 120.913 13.9733 120.86 13.92C120.82 13.8533 120.8 13.78 120.8 13.7C120.8 13.0467 120.693 12.48 120.48 12C120.267 11.5067 119.967 11.1 119.58 10.78C119.207 10.4467 118.76 10.2 118.24 10.04C117.733 9.88 117.187 9.8 116.6 9.8C115.8 9.8 115.16 9.98667 114.68 10.36C114.213 10.7333 113.86 11.22 113.62 11.82C113.38 12.42 113.227 13.1067 113.16 13.88C113.093 14.6533 113.06 15.44 113.06 16.24C113.06 17.04 113.093 17.8267 113.16 18.6C113.227 19.3733 113.38 20.0667 113.62 20.68C113.86 21.28 114.213 21.7667 114.68 22.14C115.16 22.5133 115.8 22.7 116.6 22.7C117.08 22.7 117.493 22.64 117.84 22.52C118.187 22.3867 118.467 22.22 118.68 22.02C118.907 21.82 119.073 21.6 119.18 21.36C119.287 21.1067 119.34 20.8533 119.34 20.6V17.7C119.34 17.62 119.307 17.5533 119.24 17.5C119.187 17.4333 119.12 17.4 119.04 17.4H117.6C117.467 17.4 117.4 17.3333 117.4 17.2C117.4 17.0667 117.467 17 117.6 17H123.1C123.233 17 123.3 17.0667 123.3 17.2C123.3 17.3333 123.233 17.4 123.1 17.4H122.04C121.96 17.4 121.887 17.4333 121.82 17.5C121.767 17.5533 121.74 17.62 121.74 17.7V20.3C121.74 20.38 121.767 20.4533 121.82 20.52C121.887 20.5733 121.96 20.6 122.04 20.6ZM125.304 10.86C125.304 10.5133 125.424 10.22 125.664 9.98C125.917 9.72667 126.217 9.6 126.564 9.6C126.911 9.6 127.204 9.72667 127.444 9.98C127.697 10.22 127.824 10.5133 127.824 10.86C127.824 11.2067 127.697 11.5067 127.444 11.76C127.204 12 126.911 12.12 126.564 12.12C126.217 12.12 125.917 12 125.664 11.76C125.424 11.5067 125.304 11.2067 125.304 10.86ZM127.844 14.8C127.764 14.8267 127.724 14.9133 127.724 15.06V22.3C127.724 22.38 127.751 22.4533 127.804 22.52C127.871 22.5733 127.944 22.6 128.024 22.6H128.984C129.117 22.6 129.184 22.6667 129.184 22.8C129.184 22.9333 129.117 23 128.984 23H124.284C124.151 23 124.084 22.9333 124.084 22.8C124.084 22.6667 124.151 22.6 124.284 22.6H125.224C125.304 22.6 125.371 22.5733 125.424 22.52C125.491 22.4533 125.524 22.38 125.524 22.3V15.48C125.524 15.4 125.491 15.34 125.424 15.3C125.357 15.2467 125.284 15.2267 125.204 15.24L124.244 15.38C124.124 15.4067 124.051 15.36 124.024 15.24C123.997 15.12 124.044 15.0467 124.164 15.02L127.764 14.44C127.871 14.4133 127.944 14.4533 127.984 14.56C128.011 14.6667 127.964 14.7467 127.844 14.8ZM135.276 21.5C135.329 21.3667 135.416 21.3267 135.536 21.38C135.602 21.4067 135.636 21.4533 135.636 21.52C135.636 21.5733 135.622 21.62 135.596 21.66C135.396 22.0867 135.129 22.4533 134.796 22.76C134.476 23.0533 134.036 23.2 133.476 23.2C132.729 23.2 132.196 23.0133 131.876 22.64C131.569 22.2667 131.416 21.7533 131.416 21.1V15H130.376C130.242 15 130.176 14.9333 130.176 14.8C130.176 14.6667 130.242 14.6 130.376 14.6H131.116C131.342 14.6 131.562 14.56 131.776 14.48C132.002 14.3867 132.202 14.2467 132.376 14.06C132.562 13.86 132.722 13.6067 132.856 13.3C132.989 12.98 133.082 12.5933 133.136 12.14C133.162 11.98 133.242 11.9 133.376 11.9C133.536 11.9 133.616 11.98 133.616 12.14V14.6H135.076C135.209 14.6 135.276 14.6667 135.276 14.8C135.276 14.9333 135.209 15 135.076 15H133.916C133.836 15 133.762 15.0333 133.696 15.1C133.642 15.1533 133.616 15.22 133.616 15.3V21.2C133.616 21.3733 133.616 21.5467 133.616 21.72C133.629 21.88 133.649 22.0267 133.676 22.16C133.702 22.2933 133.749 22.4 133.816 22.48C133.896 22.56 133.996 22.6 134.116 22.6C134.396 22.6 134.629 22.48 134.816 22.24C135.016 22 135.169 21.7533 135.276 21.5ZM140.048 16.4H140.088C140.168 16.1467 140.275 15.9 140.408 15.66C140.555 15.42 140.728 15.2067 140.928 15.02C141.128 14.8333 141.368 14.6867 141.648 14.58C141.928 14.46 142.255 14.4 142.628 14.4C143.535 14.4 144.215 14.64 144.668 15.12C145.121 15.6 145.348 16.2933 145.348 17.2V22.3C145.348 22.38 145.375 22.4533 145.428 22.52C145.495 22.5733 145.568 22.6 145.648 22.6H146.608C146.741 22.6 146.808 22.6667 146.808 22.8C146.808 22.9333 146.741 23 146.608 23H142.508C142.375 23 142.308 22.9333 142.308 22.8C142.308 22.6667 142.375 22.6 142.508 22.6H142.848C142.928 22.6 142.995 22.5733 143.048 22.52C143.115 22.4533 143.148 22.38 143.148 22.3V16.4C143.148 15.4 142.841 14.9 142.228 14.9C141.881 14.9 141.568 15.0267 141.288 15.28C141.021 15.52 140.795 15.8467 140.608 16.26C140.421 16.66 140.281 17.1333 140.188 17.68C140.095 18.2267 140.048 18.8 140.048 19.4V22.3C140.048 22.38 140.075 22.4533 140.128 22.52C140.195 22.5733 140.268 22.6 140.348 22.6H141.308C141.441 22.6 141.508 22.6667 141.508 22.8C141.508 22.9333 141.441 23 141.308 23H136.608C136.475 23 136.408 22.9333 136.408 22.8C136.408 22.6667 136.475 22.6 136.608 22.6H137.548C137.628 22.6 137.695 22.5733 137.748 22.52C137.815 22.4533 137.848 22.38 137.848 22.3V10.5C137.848 10.42 137.815 10.36 137.748 10.32C137.681 10.2667 137.608 10.2467 137.528 10.26L136.568 10.38C136.448 10.4067 136.375 10.36 136.348 10.24C136.321 10.12 136.368 10.0467 136.488 10.02L140.088 9.44C140.195 9.41333 140.268 9.45333 140.308 9.56C140.335 9.66667 140.288 9.74667 140.168 9.8C140.088 9.82667 140.048 9.91333 140.048 10.06V16.4ZM154.633 15.3C154.633 15.22 154.599 15.1533 154.533 15.1C154.479 15.0333 154.413 15 154.333 15H153.793C153.659 15 153.593 14.9333 153.593 14.8C153.593 14.6667 153.659 14.6 153.793 14.6H156.633C156.766 14.6 156.833 14.6667 156.833 14.8V21.8C156.833 22.1067 156.879 22.32 156.973 22.44C157.079 22.5467 157.233 22.6 157.433 22.6C157.619 22.6 157.779 22.5467 157.913 22.44C158.046 22.32 158.146 22.1867 158.213 22.04C158.253 21.9467 158.326 21.92 158.433 21.96C158.526 22 158.546 22.0733 158.493 22.18C158.306 22.5667 158.026 22.8333 157.653 22.98C157.293 23.1267 156.879 23.2 156.413 23.2C156.213 23.2 156.006 23.1733 155.793 23.12C155.579 23.0667 155.386 22.9733 155.213 22.84C155.053 22.7067 154.913 22.5333 154.793 22.32C154.686 22.0933 154.633 21.82 154.633 21.5V21.2H154.593C154.513 21.4533 154.399 21.7 154.253 21.94C154.119 22.18 153.953 22.3933 153.753 22.58C153.553 22.7667 153.313 22.9133 153.033 23.02C152.753 23.14 152.426 23.2 152.053 23.2C151.146 23.2 150.466 22.96 150.013 22.48C149.559 22 149.333 21.3067 149.333 20.4V15.46C149.333 15.38 149.299 15.32 149.233 15.28C149.166 15.2267 149.093 15.2067 149.013 15.22L148.053 15.38C147.933 15.4067 147.859 15.36 147.833 15.24C147.806 15.12 147.853 15.0467 147.972 15.02L151.573 14.44C151.679 14.4133 151.753 14.4533 151.793 14.56C151.819 14.6667 151.773 14.7467 151.653 14.8C151.573 14.8267 151.533 14.9133 151.533 15.06V21.2C151.533 22.2 151.839 22.7 152.452 22.7C152.799 22.7 153.106 22.58 153.373 22.34C153.653 22.0867 153.886 21.76 154.073 21.36C154.259 20.9467 154.399 20.4667 154.493 19.92C154.586 19.3733 154.633 18.8 154.633 18.2V15.3ZM166.136 18.66C166.136 18.2867 166.116 17.88 166.076 17.44C166.05 17 165.983 16.5933 165.876 16.22C165.783 15.8333 165.63 15.52 165.416 15.28C165.216 15.0267 164.95 14.9 164.616 14.9C164.19 14.9 163.856 15.04 163.616 15.32C163.376 15.5867 163.196 15.9067 163.076 16.28C162.97 16.6533 162.903 17.04 162.876 17.44C162.85 17.8267 162.836 18.1467 162.836 18.4V21.5C162.876 21.58 162.936 21.6867 163.016 21.82C163.096 21.9533 163.203 22.0867 163.336 22.22C163.47 22.34 163.623 22.4533 163.796 22.56C163.983 22.6533 164.19 22.7 164.416 22.7C164.79 22.7 165.09 22.5733 165.316 22.32C165.543 22.0533 165.716 21.72 165.836 21.32C165.956 20.92 166.036 20.4867 166.076 20.02C166.116 19.54 166.136 19.0867 166.136 18.66ZM160.636 10.46C160.636 10.38 160.603 10.32 160.536 10.28C160.47 10.2267 160.396 10.2067 160.316 10.22L159.356 10.38C159.236 10.4067 159.163 10.36 159.136 10.24C159.11 10.12 159.156 10.0467 159.276 10.02L162.876 9.44C162.983 9.41333 163.056 9.45333 163.096 9.56C163.123 9.66667 163.076 9.74667 162.956 9.8C162.876 9.82667 162.836 9.91333 162.836 10.06V15.7C162.943 15.4467 163.076 15.24 163.236 15.08C163.41 14.9067 163.596 14.7733 163.796 14.68C163.996 14.5733 164.196 14.5 164.396 14.46C164.61 14.42 164.816 14.4 165.016 14.4C165.603 14.4 166.116 14.5267 166.556 14.78C166.996 15.0333 167.363 15.3667 167.656 15.78C167.95 16.1933 168.17 16.6667 168.316 17.2C168.463 17.72 168.536 18.2467 168.536 18.78C168.536 19.38 168.45 19.9533 168.276 20.5C168.116 21.0333 167.876 21.5 167.556 21.9C167.236 22.3 166.836 22.62 166.356 22.86C165.89 23.0867 165.343 23.2 164.716 23.2C164.316 23.2 163.923 23.1067 163.536 22.92C163.163 22.72 162.823 22.38 162.516 21.9L161.116 23C161.09 23.0267 161.043 23.0533 160.976 23.08C160.923 23.12 160.87 23.14 160.816 23.14C160.696 23.14 160.636 23.0733 160.636 22.94V10.46Z" fill="white"/>
</svg>
