<svg width="240" height="32" viewBox="0 0 240 32" fill="none" xmlns="http://www.w3.org/2000/svg">
<g clip-path="url(#clip0_18_2265)">
<path d="M104.034 16.3599V16.3983C104.034 17.0933 103.834 17.7423 103.49 18.2914L103.499 18.276C103.154 18.835 102.661 19.2874 102.075 19.5829L102.055 19.5919C102.193 20.1077 102.272 20.6991 102.272 21.3109V21.334C102.263 23.2498 101.575 25.099 100.329 26.5551L100.338 26.5436C98.9474 28.2066 97.1652 29.4979 95.1517 30.3016L95.0634 30.3324C92.9706 31.2104 90.5386 31.7212 87.9863 31.7212L87.7904 31.7199H87.8007L87.6138 31.7212C85.0653 31.7212 82.6372 31.2104 80.424 30.2863L80.5469 30.3324C78.5106 29.5331 76.7062 28.2377 75.2976 26.564L75.281 26.5436C74.0414 25.0905 73.3566 23.2452 73.3482 21.3352V21.3263C73.3482 20.7247 73.4199 20.1384 73.5543 19.5778L73.544 19.629C72.9392 19.3342 72.4273 18.8785 72.0644 18.3119L72.0554 18.2978C71.6857 17.7201 71.4902 17.0483 71.4922 16.3624C71.4922 15.3679 71.8941 14.4668 72.5456 13.814C72.869 13.4776 73.257 13.2101 73.6864 13.0275C74.1158 12.845 74.5776 12.7511 75.0442 12.7516H75.1082H75.1044H75.1543C76.177 12.7516 77.0986 13.1906 77.7386 13.8895L77.7412 13.892C80.4934 12.0069 83.7442 10.983 87.08 10.9506H87.0903L89.1972 1.4914C89.2338 1.33447 89.3308 1.19832 89.4672 1.11252L89.4698 1.11124C89.5382 1.06316 89.616 1.0302 89.6981 1.01453C89.7802 0.998856 89.8647 1.00085 89.946 1.02036L89.9421 1.01908L96.6416 2.4898C96.8644 2.03796 97.1984 1.67188 97.6106 1.41716L97.6221 1.41076C98.0304 1.15476 98.5271 1.00244 99.0596 1.00244C99.8084 1.00244 100.488 1.30324 100.981 1.7922C101.474 2.26452 101.78 2.92884 101.78 3.66484V3.71092V3.70836V3.74676C101.78 4.4866 101.474 5.15476 100.981 5.63092L100.98 5.6322C100.727 5.88599 100.427 6.08725 100.097 6.22435C99.7665 6.36145 99.4122 6.43166 99.0544 6.43092C98.3364 6.43156 97.6474 6.14757 97.1383 5.64116C96.888 5.39831 96.6891 5.10762 96.5534 4.78635C96.4178 4.46509 96.3481 4.11982 96.3485 3.77108V3.72244V3.725L90.2839 2.381L88.3959 10.9493C91.912 10.9749 95.1709 12.0565 97.8768 13.8933L97.8167 13.8549C98.1527 13.5043 98.5563 13.2254 99.0032 13.0351C99.45 12.8448 99.9307 12.7471 100.416 12.7477C101.415 12.7477 102.318 13.1535 102.973 13.8101C103.624 14.445 104.029 15.332 104.029 16.3125V16.3624V16.3599H104.034ZM79.0877 19.972V20.013C79.0877 20.7503 79.3898 21.4172 79.8775 21.8959C80.1193 22.1488 80.41 22.35 80.7319 22.4873C81.0538 22.6246 81.4002 22.6951 81.7501 22.6946H81.7962H81.7936C82.5158 22.6939 83.2083 22.4067 83.7189 21.8961C84.2296 21.3854 84.5168 20.693 84.5175 19.9708V19.9272C84.5175 19.1912 84.2116 18.5269 83.7188 18.0559L83.7175 18.0546C83.4721 17.8041 83.1791 17.6052 82.8558 17.4696C82.5324 17.3339 82.1852 17.2643 81.8346 17.2648H81.7911H81.7936C81.0781 17.2709 80.3935 17.5577 79.8874 18.0636C79.3812 18.5695 79.0941 19.2539 79.0877 19.9695V19.972ZM93.7936 26.4181C93.857 26.3569 93.9075 26.2835 93.9419 26.2024C93.9764 26.1212 93.9941 26.034 93.9941 25.9458C93.9941 25.8576 93.9764 25.7704 93.9419 25.6892C93.9075 25.6081 93.857 25.5347 93.7936 25.4735C93.7367 25.4156 93.6687 25.3697 93.5938 25.3385C93.5188 25.3073 93.4384 25.2914 93.3572 25.2917H93.3392H93.3303C93.1588 25.2915 92.9936 25.3565 92.8682 25.4735C92.2616 26.0385 91.5116 26.4263 90.6999 26.5948L90.6704 26.5999C88.7359 27.0903 86.7088 27.0842 84.7773 26.582L84.8592 26.5999C84.0346 26.4347 83.272 26.0438 82.6564 25.4709L82.6589 25.4735C82.5337 25.3562 82.3684 25.2912 82.1968 25.2917H82.1725C82.0913 25.2915 82.011 25.3075 81.936 25.3387C81.8611 25.3699 81.7931 25.4157 81.736 25.4735C81.6718 25.5297 81.6203 25.5989 81.5849 25.6766C81.5496 25.7543 81.5313 25.8387 81.5312 25.924V25.942C81.5312 26.1288 81.6093 26.2978 81.736 26.4181C82.3363 26.9836 83.0591 27.4028 83.848 27.6431L83.8864 27.6533C84.5883 27.9081 85.3158 28.0858 86.056 28.1832L86.1111 28.1896C86.6794 28.2443 87.2298 28.2716 87.7623 28.2716C88.2948 28.2716 88.8452 28.2443 89.4135 28.1896C90.198 28.0885 90.969 27.9009 91.7124 27.6303L91.6381 27.6546C92.4435 27.416 93.1821 26.9926 93.7949 26.4181L93.7924 26.4207L93.7936 26.4181ZM93.7399 22.6959H93.7834C94.5194 22.6959 95.1837 22.39 95.6548 21.8972L95.656 21.8959C96.1437 21.4172 96.4458 20.7503 96.4458 20.013V19.9695V19.972C96.4398 19.2565 96.1529 18.5719 95.6471 18.0658C95.1412 17.5596 94.4567 17.2725 93.7412 17.2661H93.6989C92.9616 17.2661 92.2948 17.5682 91.816 18.0559C91.5631 18.2977 91.3619 18.5884 91.2246 18.9103C91.0873 19.2322 91.0168 19.5786 91.0173 19.9285V19.9746V19.972C91.018 20.6942 91.3052 21.3867 91.8159 21.8973C92.3265 22.408 93.019 22.6952 93.7412 22.6959H93.7399Z" fill="white"/>
</g>
<path d="M119.8 16.5C119.907 16.5133 120.033 16.5467 120.18 16.6C120.34 16.64 120.507 16.7133 120.68 16.82C120.853 16.9133 121.027 17.0467 121.2 17.22C121.373 17.38 121.54 17.6 121.7 17.88L123.84 22.36C123.92 22.52 124.053 22.6 124.24 22.6H125C125.133 22.6 125.2 22.6667 125.2 22.8C125.2 22.9333 125.133 23 125 23H121.5C121.38 23 121.287 22.9333 121.22 22.8L119.1 17.3C118.953 17.0333 118.793 16.8867 118.62 16.86C118.46 16.82 118.287 16.8 118.1 16.8H116.74V22.3C116.74 22.38 116.767 22.4533 116.82 22.52C116.887 22.5733 116.96 22.6 117.04 22.6H118.1C118.233 22.6 118.3 22.6667 118.3 22.8C118.3 22.9333 118.233 23 118.1 23H112.6C112.467 23 112.4 22.9333 112.4 22.8C112.4 22.6667 112.467 22.6 112.6 22.6H114.04C114.12 22.6 114.187 22.5733 114.24 22.52C114.307 22.4533 114.34 22.38 114.34 22.3V10.2C114.34 10.12 114.307 10.0533 114.24 10C114.187 9.93333 114.12 9.9 114.04 9.9H112.6C112.467 9.9 112.4 9.83333 112.4 9.7C112.4 9.56667 112.467 9.5 112.6 9.5H118.4C119.027 9.5 119.633 9.56 120.22 9.68C120.807 9.8 121.327 10 121.78 10.28C122.247 10.56 122.613 10.9333 122.88 11.4C123.16 11.8533 123.3 12.42 123.3 13.1C123.3 13.6067 123.187 14.0533 122.96 14.44C122.747 14.8267 122.467 15.1533 122.12 15.42C121.773 15.6867 121.393 15.9067 120.98 16.08C120.567 16.2533 120.173 16.3867 119.8 16.48V16.5ZM116.74 16.4H118.1C118.9 16.4 119.533 16.14 120 15.62C120.467 15.1 120.7 14.26 120.7 13.1C120.7 11.94 120.467 11.12 120 10.64C119.533 10.1467 118.9 9.9 118.1 9.9H117.04C116.96 9.9 116.887 9.93333 116.82 10C116.767 10.0533 116.74 10.12 116.74 10.2V16.4ZM130.491 17.6C130.544 17.3467 130.571 17.0667 130.571 16.76C130.571 16.16 130.451 15.6933 130.211 15.36C129.984 15.0267 129.691 14.86 129.331 14.86C129.037 14.86 128.791 14.94 128.591 15.1C128.404 15.26 128.251 15.4667 128.131 15.72C128.024 15.9733 127.944 16.2667 127.891 16.6C127.851 16.9333 127.831 17.2667 127.831 17.6H130.491ZM132.911 17.9C132.911 18.0333 132.844 18.1 132.711 18.1H127.791C127.777 18.5 127.784 18.96 127.811 19.48C127.837 20 127.917 20.4933 128.051 20.96C128.197 21.4267 128.411 21.8267 128.691 22.16C128.984 22.48 129.384 22.64 129.891 22.64C130.544 22.64 131.057 22.4933 131.431 22.2C131.804 21.9067 132.097 21.5867 132.311 21.24C132.337 21.1867 132.377 21.1533 132.431 21.14C132.484 21.1133 132.544 21.1133 132.611 21.14C132.677 21.18 132.711 21.2333 132.711 21.3C132.711 21.3533 132.697 21.4 132.671 21.44C132.391 21.9467 131.997 22.3667 131.491 22.7C130.997 23.0333 130.397 23.2 129.691 23.2C129.037 23.2 128.444 23.0933 127.911 22.88C127.391 22.6533 126.944 22.3467 126.571 21.96C126.197 21.5733 125.904 21.1133 125.691 20.58C125.491 20.0333 125.391 19.4467 125.391 18.82C125.391 18.2467 125.491 17.7 125.691 17.18C125.904 16.6467 126.191 16.1733 126.551 15.76C126.924 15.3467 127.357 15.02 127.851 14.78C128.357 14.5267 128.904 14.4 129.491 14.4C130.197 14.4 130.824 14.5667 131.371 14.9C131.917 15.2333 132.324 15.7 132.591 16.3C132.697 16.5267 132.784 16.78 132.851 17.06C132.917 17.3267 132.937 17.6067 132.911 17.9ZM137.224 18.94C137.224 19.3267 137.238 19.74 137.264 20.18C137.304 20.6067 137.371 21.0133 137.464 21.4C137.571 21.7733 137.724 22.0867 137.924 22.34C138.124 22.58 138.398 22.7 138.744 22.7C139.171 22.7 139.504 22.5667 139.744 22.3C139.984 22.02 140.158 21.6933 140.264 21.32C140.384 20.9467 140.458 20.5667 140.484 20.18C140.511 19.78 140.524 19.4533 140.524 19.2V16.1C140.484 16.02 140.424 15.9133 140.344 15.78C140.264 15.6467 140.158 15.52 140.024 15.4C139.891 15.2667 139.731 15.1533 139.544 15.06C139.371 14.9533 139.171 14.9 138.944 14.9C138.571 14.9 138.271 15.0333 138.044 15.3C137.818 15.5533 137.644 15.88 137.524 16.28C137.404 16.68 137.324 17.12 137.284 17.6C137.244 18.0667 137.224 18.5133 137.224 18.94ZM140.524 15.2V10.5C140.524 10.42 140.491 10.36 140.424 10.32C140.358 10.2667 140.284 10.2467 140.204 10.26L139.244 10.38C139.124 10.4067 139.051 10.36 139.024 10.24C138.998 10.12 139.044 10.0467 139.164 10.02L142.764 9.44C142.871 9.41333 142.944 9.45333 142.984 9.56C143.011 9.66667 142.964 9.74667 142.844 9.8C142.764 9.82667 142.724 9.91333 142.724 10.06V21.8C142.724 22.1067 142.771 22.32 142.864 22.44C142.971 22.5467 143.124 22.6 143.324 22.6C143.511 22.6 143.671 22.5467 143.804 22.44C143.938 22.32 144.038 22.1867 144.104 22.04C144.144 21.9467 144.218 21.92 144.324 21.96C144.418 22 144.438 22.0733 144.384 22.18C144.198 22.5667 143.918 22.8333 143.544 22.98C143.184 23.1267 142.771 23.2 142.304 23.2C141.904 23.2 141.531 23.1 141.184 22.9C140.851 22.6867 140.644 22.3533 140.564 21.9H140.524C140.418 22.1533 140.278 22.3667 140.104 22.54C139.944 22.7 139.764 22.8333 139.564 22.94C139.364 23.0333 139.158 23.1 138.944 23.14C138.744 23.18 138.544 23.2 138.344 23.2C137.758 23.2 137.244 23.0733 136.804 22.82C136.364 22.5667 135.998 22.2333 135.704 21.82C135.411 21.4067 135.191 20.94 135.044 20.42C134.898 19.9 134.824 19.3667 134.824 18.82C134.824 18.22 134.904 17.6533 135.064 17.12C135.238 16.5733 135.484 16.1 135.804 15.7C136.124 15.3 136.518 14.9867 136.984 14.76C137.464 14.52 138.018 14.4 138.644 14.4C138.964 14.4 139.284 14.4667 139.604 14.6C139.924 14.72 140.218 14.9267 140.484 15.22L140.524 15.2ZM148.201 18.94C148.201 19.3267 148.214 19.74 148.241 20.18C148.281 20.6067 148.347 21.0133 148.441 21.4C148.547 21.7733 148.701 22.0867 148.901 22.34C149.101 22.58 149.374 22.7 149.721 22.7C150.147 22.7 150.481 22.5667 150.721 22.3C150.961 22.02 151.134 21.6933 151.241 21.32C151.361 20.9467 151.434 20.5667 151.461 20.18C151.487 19.78 151.501 19.4533 151.501 19.2V16.1C151.461 16.02 151.401 15.9133 151.321 15.78C151.241 15.6467 151.134 15.52 151.001 15.4C150.867 15.2667 150.707 15.1533 150.521 15.06C150.347 14.9533 150.147 14.9 149.921 14.9C149.547 14.9 149.247 15.0333 149.021 15.3C148.794 15.5533 148.621 15.88 148.501 16.28C148.381 16.68 148.301 17.12 148.261 17.6C148.221 18.0667 148.201 18.5133 148.201 18.94ZM151.501 15.2V10.5C151.501 10.42 151.467 10.36 151.401 10.32C151.334 10.2667 151.261 10.2467 151.181 10.26L150.221 10.38C150.101 10.4067 150.027 10.36 150.001 10.24C149.974 10.12 150.021 10.0467 150.141 10.02L153.741 9.44C153.847 9.41333 153.921 9.45333 153.961 9.56C153.987 9.66667 153.941 9.74667 153.821 9.8C153.741 9.82667 153.701 9.91333 153.701 10.06V21.8C153.701 22.1067 153.747 22.32 153.841 22.44C153.947 22.5467 154.101 22.6 154.301 22.6C154.487 22.6 154.647 22.5467 154.781 22.44C154.914 22.32 155.014 22.1867 155.081 22.04C155.121 21.9467 155.194 21.92 155.301 21.96C155.394 22 155.414 22.0733 155.361 22.18C155.174 22.5667 154.894 22.8333 154.521 22.98C154.161 23.1267 153.747 23.2 153.281 23.2C152.881 23.2 152.507 23.1 152.161 22.9C151.827 22.6867 151.621 22.3533 151.541 21.9H151.501C151.394 22.1533 151.254 22.3667 151.081 22.54C150.921 22.7 150.741 22.8333 150.541 22.94C150.341 23.0333 150.134 23.1 149.921 23.14C149.721 23.18 149.521 23.2 149.321 23.2C148.734 23.2 148.221 23.0733 147.781 22.82C147.341 22.5667 146.974 22.2333 146.681 21.82C146.387 21.4067 146.167 20.94 146.021 20.42C145.874 19.9 145.801 19.3667 145.801 18.82C145.801 18.22 145.881 17.6533 146.041 17.12C146.214 16.5733 146.461 16.1 146.781 15.7C147.101 15.3 147.494 14.9867 147.961 14.76C148.441 14.52 148.994 14.4 149.621 14.4C149.941 14.4 150.261 14.4667 150.581 14.6C150.901 14.72 151.194 14.9267 151.461 15.22L151.501 15.2ZM157.577 10.86C157.577 10.5133 157.697 10.22 157.937 9.98C158.191 9.72667 158.491 9.6 158.837 9.6C159.184 9.6 159.477 9.72667 159.717 9.98C159.971 10.22 160.097 10.5133 160.097 10.86C160.097 11.2067 159.971 11.5067 159.717 11.76C159.477 12 159.184 12.12 158.837 12.12C158.491 12.12 158.191 12 157.937 11.76C157.697 11.5067 157.577 11.2067 157.577 10.86ZM160.117 14.8C160.037 14.8267 159.997 14.9133 159.997 15.06V22.3C159.997 22.38 160.024 22.4533 160.077 22.52C160.144 22.5733 160.217 22.6 160.297 22.6H161.257C161.391 22.6 161.457 22.6667 161.457 22.8C161.457 22.9333 161.391 23 161.257 23H156.557C156.424 23 156.357 22.9333 156.357 22.8C156.357 22.6667 156.424 22.6 156.557 22.6H157.497C157.577 22.6 157.644 22.5733 157.697 22.52C157.764 22.4533 157.797 22.38 157.797 22.3V15.48C157.797 15.4 157.764 15.34 157.697 15.3C157.631 15.2467 157.557 15.2267 157.477 15.24L156.517 15.38C156.397 15.4067 156.324 15.36 156.297 15.24C156.271 15.12 156.317 15.0467 156.437 15.02L160.037 14.44C160.144 14.4133 160.217 14.4533 160.257 14.56C160.284 14.6667 160.237 14.7467 160.117 14.8ZM167.549 21.5C167.603 21.3667 167.689 21.3267 167.809 21.38C167.876 21.4067 167.909 21.4533 167.909 21.52C167.909 21.5733 167.896 21.62 167.869 21.66C167.669 22.0867 167.403 22.4533 167.069 22.76C166.749 23.0533 166.309 23.2 165.749 23.2C165.003 23.2 164.469 23.0133 164.149 22.64C163.843 22.2667 163.689 21.7533 163.689 21.1V15H162.649C162.516 15 162.449 14.9333 162.449 14.8C162.449 14.6667 162.516 14.6 162.649 14.6H163.389C163.616 14.6 163.836 14.56 164.049 14.48C164.276 14.3867 164.476 14.2467 164.649 14.06C164.836 13.86 164.996 13.6067 165.129 13.3C165.263 12.98 165.356 12.5933 165.409 12.14C165.436 11.98 165.516 11.9 165.649 11.9C165.809 11.9 165.889 11.98 165.889 12.14V14.6H167.349C167.483 14.6 167.549 14.6667 167.549 14.8C167.549 14.9333 167.483 15 167.349 15H166.189C166.109 15 166.036 15.0333 165.969 15.1C165.916 15.1533 165.889 15.22 165.889 15.3V21.2C165.889 21.3733 165.889 21.5467 165.889 21.72C165.903 21.88 165.923 22.0267 165.949 22.16C165.976 22.2933 166.023 22.4 166.089 22.48C166.169 22.56 166.269 22.6 166.389 22.6C166.669 22.6 166.903 22.48 167.089 22.24C167.289 22 167.443 21.7533 167.549 21.5Z" fill="white"/>
<defs>
<clipPath id="clip0_18_2265">
<rect width="32" height="32" fill="white" transform="translate(71.5)"/>
</clipPath>
</defs>
</svg>
