<svg width="240" height="32" viewBox="0 0 240 32" fill="none" xmlns="http://www.w3.org/2000/svg">
<g clip-path="url(#clip0_18_2261)">
<path fill-rule="evenodd" clip-rule="evenodd" d="M86.3702 5.90662C86.6997 5.76794 87.0603 5.72011 87.4146 5.76811C87.7688 5.81611 88.1037 5.95818 88.3844 6.17953C88.6651 6.40089 88.8814 6.69344 89.0107 7.02673C89.1399 7.36002 89.1775 7.72187 89.1195 8.07462L86.0955 26.4173C85.8022 28.1866 83.8608 29.2013 82.2382 28.32C80.8808 27.5826 78.8648 26.4466 77.0515 25.2613C76.1448 24.668 73.3675 22.768 73.7088 21.416C74.0022 20.26 78.6688 15.916 81.3355 13.3333C82.3822 12.3186 81.9048 11.7333 80.6688 12.6666C77.5995 14.984 72.6715 18.508 71.0422 19.5C69.6048 20.3746 68.8555 20.524 67.9595 20.3746C66.3248 20.1026 64.8088 19.6813 63.5715 19.168C61.8995 18.4746 61.9808 16.176 63.5702 15.5066L86.3702 5.90662Z" fill="white"/>
</g>
<path d="M111.52 9.5C111.653 9.5 111.72 9.56667 111.72 9.7L111.92 12.7C111.92 12.78 111.9 12.8533 111.86 12.92C111.82 12.9733 111.76 13 111.68 13C111.6 13 111.54 12.9733 111.5 12.92C111.46 12.8533 111.433 12.78 111.42 12.7C111.313 11.7133 111.027 11 110.56 10.56C110.093 10.12 109.447 9.9 108.62 9.9H107.76C107.68 9.9 107.607 9.93333 107.54 10C107.487 10.0533 107.46 10.12 107.46 10.2V22.3C107.46 22.38 107.487 22.4533 107.54 22.52C107.607 22.5733 107.68 22.6 107.76 22.6H109.22C109.353 22.6 109.42 22.6667 109.42 22.8C109.42 22.9333 109.353 23 109.22 23H103.32C103.187 23 103.12 22.9333 103.12 22.8C103.12 22.6667 103.187 22.6 103.32 22.6H104.76C104.84 22.6 104.907 22.5733 104.96 22.52C105.027 22.4533 105.06 22.38 105.06 22.3V10.2C105.06 10.12 105.027 10.0533 104.96 10C104.907 9.93333 104.84 9.9 104.76 9.9H103.9C103.073 9.9 102.427 10.12 101.96 10.56C101.493 11 101.207 11.7133 101.1 12.7C101.087 12.78 101.06 12.8533 101.02 12.92C100.98 12.9733 100.92 13 100.84 13C100.76 13 100.7 12.9733 100.66 12.92C100.62 12.8533 100.6 12.78 100.6 12.7L100.8 9.7C100.8 9.56667 100.867 9.5 101 9.5H111.52ZM117.018 17.6C117.071 17.3467 117.098 17.0667 117.098 16.76C117.098 16.16 116.978 15.6933 116.738 15.36C116.511 15.0267 116.218 14.86 115.858 14.86C115.565 14.86 115.318 14.94 115.118 15.1C114.931 15.26 114.778 15.4667 114.658 15.72C114.551 15.9733 114.471 16.2667 114.418 16.6C114.378 16.9333 114.358 17.2667 114.358 17.6H117.018ZM119.438 17.9C119.438 18.0333 119.371 18.1 119.238 18.1H114.318C114.305 18.5 114.311 18.96 114.338 19.48C114.365 20 114.445 20.4933 114.578 20.96C114.725 21.4267 114.938 21.8267 115.218 22.16C115.511 22.48 115.911 22.64 116.418 22.64C117.071 22.64 117.585 22.4933 117.958 22.2C118.331 21.9067 118.625 21.5867 118.838 21.24C118.865 21.1867 118.905 21.1533 118.958 21.14C119.011 21.1133 119.071 21.1133 119.138 21.14C119.205 21.18 119.238 21.2333 119.238 21.3C119.238 21.3533 119.225 21.4 119.198 21.44C118.918 21.9467 118.525 22.3667 118.018 22.7C117.525 23.0333 116.925 23.2 116.218 23.2C115.565 23.2 114.971 23.0933 114.438 22.88C113.918 22.6533 113.471 22.3467 113.098 21.96C112.725 21.5733 112.431 21.1133 112.218 20.58C112.018 20.0333 111.918 19.4467 111.918 18.82C111.918 18.2467 112.018 17.7 112.218 17.18C112.431 16.6467 112.718 16.1733 113.078 15.76C113.451 15.3467 113.885 15.02 114.378 14.78C114.885 14.5267 115.431 14.4 116.018 14.4C116.725 14.4 117.351 14.5667 117.898 14.9C118.445 15.2333 118.851 15.7 119.118 16.3C119.225 16.5267 119.311 16.78 119.378 17.06C119.445 17.3267 119.465 17.6067 119.438 17.9ZM124.692 9.8C124.612 9.82667 124.572 9.91333 124.572 10.06V22.3C124.572 22.38 124.598 22.4533 124.652 22.52C124.718 22.5733 124.792 22.6 124.872 22.6H125.832C125.965 22.6 126.032 22.6667 126.032 22.8C126.032 22.9333 125.965 23 125.832 23H121.132C120.998 23 120.932 22.9333 120.932 22.8C120.932 22.6667 120.998 22.6 121.132 22.6H122.072C122.152 22.6 122.218 22.5733 122.272 22.52C122.338 22.4533 122.372 22.38 122.372 22.3V10.5C122.372 10.42 122.338 10.36 122.272 10.32C122.205 10.2667 122.132 10.2467 122.052 10.26L121.092 10.38C120.972 10.4067 120.898 10.36 120.872 10.24C120.845 10.12 120.892 10.0467 121.012 10.02L124.612 9.44C124.718 9.41333 124.792 9.45333 124.832 9.56C124.858 9.66667 124.812 9.74667 124.692 9.8ZM132.623 17.6C132.677 17.3467 132.703 17.0667 132.703 16.76C132.703 16.16 132.583 15.6933 132.343 15.36C132.117 15.0267 131.823 14.86 131.463 14.86C131.17 14.86 130.923 14.94 130.723 15.1C130.537 15.26 130.383 15.4667 130.263 15.72C130.157 15.9733 130.077 16.2667 130.023 16.6C129.983 16.9333 129.963 17.2667 129.963 17.6H132.623ZM135.043 17.9C135.043 18.0333 134.977 18.1 134.843 18.1H129.923C129.91 18.5 129.917 18.96 129.943 19.48C129.97 20 130.05 20.4933 130.183 20.96C130.33 21.4267 130.543 21.8267 130.823 22.16C131.117 22.48 131.517 22.64 132.023 22.64C132.677 22.64 133.19 22.4933 133.563 22.2C133.937 21.9067 134.23 21.5867 134.443 21.24C134.47 21.1867 134.51 21.1533 134.563 21.14C134.617 21.1133 134.677 21.1133 134.743 21.14C134.81 21.18 134.843 21.2333 134.843 21.3C134.843 21.3533 134.83 21.4 134.803 21.44C134.523 21.9467 134.13 22.3667 133.623 22.7C133.13 23.0333 132.53 23.2 131.823 23.2C131.17 23.2 130.577 23.0933 130.043 22.88C129.523 22.6533 129.077 22.3467 128.703 21.96C128.33 21.5733 128.037 21.1133 127.823 20.58C127.623 20.0333 127.523 19.4467 127.523 18.82C127.523 18.2467 127.623 17.7 127.823 17.18C128.037 16.6467 128.323 16.1733 128.683 15.76C129.057 15.3467 129.49 15.02 129.983 14.78C130.49 14.5267 131.037 14.4 131.623 14.4C132.33 14.4 132.957 14.5667 133.503 14.9C134.05 15.2333 134.457 15.7 134.723 16.3C134.83 16.5267 134.917 16.78 134.983 17.06C135.05 17.3267 135.07 17.6067 135.043 17.9ZM141.917 17.32C141.917 17.0133 141.904 16.7133 141.877 16.42C141.864 16.1133 141.817 15.84 141.737 15.6C141.657 15.36 141.544 15.1667 141.397 15.02C141.25 14.8733 141.05 14.8 140.797 14.8C140.317 14.8 140.004 15.0333 139.857 15.5C139.71 15.9533 139.637 16.56 139.637 17.32C139.637 17.64 139.644 17.9467 139.657 18.24C139.67 18.5333 139.71 18.7933 139.777 19.02C139.857 19.2467 139.977 19.4333 140.137 19.58C140.297 19.7133 140.524 19.78 140.817 19.78C141.057 19.78 141.25 19.7133 141.397 19.58C141.544 19.4467 141.657 19.2667 141.737 19.04C141.817 18.8 141.864 18.5333 141.877 18.24C141.904 17.9467 141.917 17.64 141.917 17.32ZM138.357 24.06C138.064 24.26 137.864 24.5 137.757 24.78C137.65 25.06 137.597 25.3333 137.597 25.6C137.597 26.36 137.864 26.9333 138.397 27.32C138.944 27.7067 139.664 27.9 140.557 27.9C140.957 27.9 141.364 27.8467 141.777 27.74C142.204 27.6467 142.59 27.4933 142.937 27.28C143.284 27.0667 143.564 26.8 143.777 26.48C144.004 26.1733 144.117 25.8067 144.117 25.38C144.117 24.74 143.91 24.2933 143.497 24.04C143.084 23.7867 142.437 23.66 141.557 23.66H139.477C138.797 23.66 138.237 23.5067 137.797 23.2C137.357 22.8933 137.11 22.44 137.057 21.84C137.017 21.3733 137.124 20.9667 137.377 20.62C137.644 20.2733 138.117 19.9467 138.797 19.64C138.41 19.3867 138.104 19.0667 137.877 18.68C137.65 18.2933 137.537 17.8467 137.537 17.34C137.537 16.9133 137.63 16.52 137.817 16.16C138.004 15.8 138.25 15.4933 138.557 15.24C138.864 14.9733 139.21 14.7667 139.597 14.62C139.997 14.4733 140.397 14.4 140.797 14.4C141.277 14.4 141.724 14.4933 142.137 14.68C142.55 14.8667 142.91 15.12 143.217 15.44C143.297 15.0533 143.464 14.7333 143.717 14.48C143.97 14.2267 144.29 14.1 144.677 14.1C144.864 14.1 145.05 14.14 145.237 14.22C145.437 14.2867 145.617 14.4467 145.777 14.7C145.884 14.8867 145.93 15.0933 145.917 15.32C145.904 15.5467 145.824 15.7067 145.677 15.8C145.624 15.84 145.55 15.8667 145.457 15.88C145.364 15.8933 145.27 15.8933 145.177 15.88C145.097 15.8533 145.017 15.8133 144.937 15.76C144.857 15.7067 144.804 15.62 144.777 15.5C144.644 15.0333 144.477 14.8 144.277 14.8C144.064 14.8 143.897 14.8867 143.777 15.06C143.657 15.22 143.584 15.4133 143.557 15.64C143.664 15.88 143.764 16.14 143.857 16.42C143.964 16.6867 144.017 16.9733 144.017 17.28C144.017 17.7067 143.924 18.1 143.737 18.46C143.564 18.8067 143.33 19.1133 143.037 19.38C142.757 19.6333 142.424 19.8333 142.037 19.98C141.664 20.1267 141.277 20.2 140.877 20.2C140.57 20.2 140.284 20.1733 140.017 20.12C139.764 20.0533 139.517 19.98 139.277 19.9C138.97 19.9933 138.71 20.12 138.497 20.28C138.284 20.44 138.197 20.66 138.237 20.94C138.264 21.1667 138.357 21.3 138.517 21.34C138.677 21.38 138.897 21.4 139.177 21.4H141.697C142.19 21.4 142.644 21.4733 143.057 21.62C143.484 21.7667 143.85 21.9867 144.157 22.28C144.464 22.56 144.697 22.9 144.857 23.3C145.03 23.7133 145.117 24.18 145.117 24.7C145.117 25.3267 144.977 25.8667 144.697 26.32C144.43 26.7867 144.077 27.1733 143.637 27.48C143.197 27.7867 142.69 28.0133 142.117 28.16C141.544 28.32 140.957 28.4 140.357 28.4C139.81 28.4 139.284 28.3533 138.777 28.26C138.284 28.1667 137.85 28.0133 137.477 27.8C137.104 27.6 136.804 27.34 136.577 27.02C136.364 26.7133 136.257 26.34 136.257 25.9C136.257 25.3933 136.444 24.96 136.817 24.6C137.204 24.2533 137.67 23.9867 138.217 23.8C138.35 23.76 138.43 23.78 138.457 23.86C138.497 23.94 138.464 24.0067 138.357 24.06ZM150.158 22.3C150.158 22.38 150.184 22.4533 150.238 22.52C150.304 22.5733 150.378 22.6 150.458 22.6H151.418C151.551 22.6 151.618 22.6667 151.618 22.8C151.618 22.9333 151.551 23 151.418 23H146.718C146.584 23 146.518 22.9333 146.518 22.8C146.518 22.6667 146.584 22.6 146.718 22.6H147.658C147.738 22.6 147.804 22.5733 147.858 22.52C147.924 22.4533 147.958 22.38 147.958 22.3V15.46C147.958 15.38 147.924 15.32 147.858 15.28C147.791 15.2267 147.718 15.2067 147.638 15.22L146.678 15.38C146.558 15.4067 146.484 15.36 146.458 15.24C146.431 15.12 146.478 15.0467 146.597 15.02L150.198 14.44C150.304 14.4133 150.378 14.4533 150.418 14.56C150.444 14.6667 150.398 14.7467 150.278 14.8C150.198 14.8267 150.158 14.9133 150.158 15.06V16.4H150.198C150.411 15.7467 150.711 15.2533 151.098 14.92C151.484 14.5733 151.924 14.4 152.418 14.4C152.738 14.4 153.004 14.46 153.218 14.58C153.431 14.6867 153.598 14.82 153.718 14.98C153.851 15.14 153.938 15.3133 153.978 15.5C154.018 15.6867 154.031 15.8533 154.018 16C153.991 16.2133 153.924 16.4 153.818 16.56C153.711 16.72 153.511 16.8 153.218 16.8C152.871 16.8 152.651 16.7067 152.558 16.52C152.464 16.3333 152.411 16.1267 152.398 15.9C152.384 15.6733 152.364 15.4667 152.338 15.28C152.311 15.0933 152.178 15 151.938 15C151.684 15 151.451 15.1067 151.238 15.32C151.024 15.5333 150.838 15.8267 150.678 16.2C150.518 16.5733 150.391 17.02 150.298 17.54C150.204 18.0467 150.158 18.6 150.158 19.2V22.3ZM158.945 19.2C158.572 19.1333 158.259 19.1133 158.005 19.14C157.752 19.1533 157.545 19.2333 157.385 19.38C157.225 19.5133 157.112 19.72 157.045 20C156.979 20.28 156.945 20.64 156.945 21.08C156.945 21.28 156.952 21.4733 156.965 21.66C156.992 21.8467 157.032 22.0133 157.085 22.16C157.152 22.2933 157.232 22.4 157.325 22.48C157.432 22.56 157.572 22.6 157.745 22.6C157.959 22.6 158.185 22.46 158.425 22.18C158.665 21.8867 158.839 21.5267 158.945 21.1V19.2ZM161.145 21.8C161.145 22.1067 161.192 22.32 161.285 22.44C161.392 22.5467 161.545 22.6 161.745 22.6C161.932 22.6 162.092 22.5467 162.225 22.44C162.359 22.32 162.459 22.1867 162.525 22.04C162.565 21.9467 162.639 21.92 162.745 21.96C162.839 22 162.859 22.0733 162.805 22.18C162.619 22.5667 162.345 22.8333 161.985 22.98C161.625 23.1267 161.212 23.2 160.745 23.2C160.345 23.2 159.979 23.1 159.645 22.9C159.312 22.6867 159.105 22.3533 159.025 21.9H158.985C158.879 22.2467 158.672 22.5533 158.365 22.82C158.059 23.0733 157.652 23.2 157.145 23.2C156.372 23.2 155.779 23.02 155.365 22.66C154.952 22.3 154.745 21.78 154.745 21.1C154.745 20.5 154.899 20.0333 155.205 19.7C155.525 19.3667 155.939 19.1 156.445 18.9C156.699 18.8067 156.945 18.74 157.185 18.7C157.439 18.66 157.672 18.6467 157.885 18.66C158.112 18.66 158.312 18.6733 158.485 18.7C158.672 18.7267 158.825 18.76 158.945 18.8V16.6C158.945 16.0933 158.899 15.6667 158.805 15.32C158.712 14.9733 158.492 14.8 158.145 14.8C157.772 14.8 157.512 14.9067 157.365 15.12C157.219 15.3333 157.145 15.6933 157.145 16.2C157.145 16.4 157.079 16.62 156.945 16.86C156.825 17.0867 156.592 17.2 156.245 17.2C155.992 17.2 155.779 17.1133 155.605 16.94C155.432 16.7667 155.345 16.5533 155.345 16.3C155.345 15.98 155.425 15.7 155.585 15.46C155.745 15.22 155.959 15.02 156.225 14.86C156.505 14.7 156.819 14.5867 157.165 14.52C157.512 14.44 157.872 14.4 158.245 14.4C159.152 14.4 159.859 14.6067 160.365 15.02C160.885 15.4333 161.145 16.0933 161.145 17V21.8ZM172.723 16.44C172.803 16.1867 172.909 15.94 173.043 15.7C173.189 15.46 173.369 15.2467 173.583 15.06C173.796 14.86 174.043 14.7 174.323 14.58C174.616 14.46 174.949 14.4 175.323 14.4C176.229 14.4 176.909 14.64 177.363 15.12C177.816 15.6 178.043 16.2933 178.043 17.2V22.3C178.043 22.38 178.069 22.4533 178.123 22.52C178.189 22.5733 178.263 22.6 178.343 22.6H179.303C179.436 22.6 179.503 22.6667 179.503 22.8C179.503 22.9333 179.436 23 179.303 23H175.203C175.069 23 175.003 22.9333 175.003 22.8C175.003 22.6667 175.069 22.6 175.203 22.6H175.543C175.623 22.6 175.689 22.5733 175.743 22.52C175.809 22.4533 175.843 22.38 175.843 22.3V16.4C175.843 15.4 175.536 14.9 174.923 14.9C174.576 14.9 174.263 15.0267 173.983 15.28C173.716 15.52 173.489 15.8467 173.303 16.26C173.116 16.66 172.976 17.1333 172.883 17.68C172.789 18.2267 172.743 18.8 172.743 19.4V22.3C172.743 22.38 172.769 22.4533 172.823 22.52C172.889 22.5733 172.963 22.6 173.043 22.6H174.003C174.136 22.6 174.203 22.6667 174.203 22.8C174.203 22.9333 174.136 23 174.003 23H169.903C169.769 23 169.703 22.9333 169.703 22.8C169.703 22.6667 169.769 22.6 169.903 22.6H170.243C170.323 22.6 170.389 22.5733 170.443 22.52C170.509 22.4533 170.543 22.38 170.543 22.3V16.4C170.543 15.4 170.236 14.9 169.623 14.9C169.276 14.9 168.963 15.0267 168.683 15.28C168.416 15.52 168.189 15.8467 168.003 16.26C167.816 16.66 167.676 17.1333 167.583 17.68C167.489 18.2267 167.443 18.8 167.443 19.4V22.3C167.443 22.38 167.469 22.4533 167.523 22.52C167.589 22.5733 167.663 22.6 167.743 22.6H168.703C168.836 22.6 168.903 22.6667 168.903 22.8C168.903 22.9333 168.836 23 168.703 23H164.003C163.869 23 163.803 22.9333 163.803 22.8C163.803 22.6667 163.869 22.6 164.003 22.6H164.943C165.023 22.6 165.089 22.5733 165.143 22.52C165.209 22.4533 165.243 22.38 165.243 22.3V15.46C165.243 15.38 165.209 15.32 165.143 15.28C165.076 15.2267 165.003 15.2067 164.923 15.22L163.963 15.38C163.843 15.4067 163.769 15.36 163.743 15.24C163.716 15.12 163.763 15.0467 163.883 15.02L167.483 14.44C167.589 14.4133 167.663 14.4533 167.703 14.56C167.729 14.6667 167.683 14.7467 167.563 14.8C167.483 14.8267 167.443 14.9133 167.443 15.06V16.4H167.483C167.563 16.1467 167.669 15.9 167.803 15.66C167.949 15.42 168.123 15.2067 168.323 15.02C168.523 14.8333 168.763 14.6867 169.043 14.58C169.323 14.46 169.649 14.4 170.023 14.4C170.796 14.4 171.403 14.5733 171.843 14.92C172.283 15.2667 172.563 15.7733 172.683 16.44H172.723Z" fill="white"/>
<defs>
<clipPath id="clip0_18_2261">
<rect width="32" height="32" fill="white" transform="translate(60)"/>
</clipPath>
</defs>
</svg>
