<svg width="240" height="32" viewBox="0 0 240 32" fill="none" xmlns="http://www.w3.org/2000/svg">
<path d="M93.8258 3H98.2383L88.6008 14.0125L99.9383 29H91.0633L84.107 19.9125L76.157 29H71.7383L82.0445 17.2188L71.1758 3H80.2758L86.557 11.3062L93.8258 3ZM92.2758 26.3625H94.7195L78.9445 5.5H76.3195L92.2758 26.3625Z" fill="white"/>
<path d="M121.02 9.5C121.153 9.5 121.22 9.56667 121.22 9.7L121.42 12.7C121.42 12.78 121.4 12.8533 121.36 12.92C121.32 12.9733 121.26 13 121.18 13C121.1 13 121.04 12.9733 121 12.92C120.96 12.8533 120.933 12.78 120.92 12.7C120.813 11.7133 120.527 11 120.06 10.56C119.593 10.12 118.947 9.9 118.12 9.9H117.26C117.18 9.9 117.107 9.93333 117.04 10C116.987 10.0533 116.96 10.12 116.96 10.2V22.3C116.96 22.38 116.987 22.4533 117.04 22.52C117.107 22.5733 117.18 22.6 117.26 22.6H118.72C118.853 22.6 118.92 22.6667 118.92 22.8C118.92 22.9333 118.853 23 118.72 23H112.82C112.687 23 112.62 22.9333 112.62 22.8C112.62 22.6667 112.687 22.6 112.82 22.6H114.26C114.34 22.6 114.407 22.5733 114.46 22.52C114.527 22.4533 114.56 22.38 114.56 22.3V10.2C114.56 10.12 114.527 10.0533 114.46 10C114.407 9.93333 114.34 9.9 114.26 9.9H113.4C112.573 9.9 111.927 10.12 111.46 10.56C110.993 11 110.707 11.7133 110.6 12.7C110.587 12.78 110.56 12.8533 110.52 12.92C110.48 12.9733 110.42 13 110.34 13C110.26 13 110.2 12.9733 110.16 12.92C110.12 12.8533 110.1 12.78 110.1 12.7L110.3 9.7C110.3 9.56667 110.367 9.5 110.5 9.5H121.02ZM127.107 14.8C127.134 14.72 127.167 14.6533 127.207 14.6C127.261 14.5333 127.327 14.5 127.407 14.5C127.474 14.5 127.527 14.52 127.567 14.56C127.621 14.6 127.667 14.68 127.707 14.8L130.127 20.28L131.967 15H130.767C130.634 15 130.567 14.9333 130.567 14.8C130.567 14.6667 130.634 14.6 130.767 14.6H133.867C134.001 14.6 134.067 14.6667 134.067 14.8C134.067 14.9333 134.001 15 133.867 15H132.967C132.687 15 132.507 15.08 132.427 15.24L129.687 22.8C129.647 22.9067 129.594 23 129.527 23.08C129.461 23.16 129.374 23.2 129.267 23.2C129.121 23.2 129.014 23.16 128.947 23.08C128.894 23 128.847 22.9067 128.807 22.8L126.667 17.64L124.787 22.8C124.747 22.9067 124.694 23 124.627 23.08C124.561 23.16 124.474 23.2 124.367 23.2C124.221 23.2 124.121 23.16 124.067 23.08C124.014 23 123.967 22.9067 123.927 22.8L121.267 15.24C121.187 15.08 121.007 15 120.727 15H120.027C119.894 15 119.827 14.9333 119.827 14.8C119.827 14.6667 119.894 14.6 120.027 14.6H124.827C124.961 14.6 125.027 14.6667 125.027 14.8C125.027 14.9333 124.961 15 124.827 15H123.647L125.287 20.04L127.107 14.8ZM135.87 10.86C135.87 10.5133 135.99 10.22 136.23 9.98C136.484 9.72667 136.784 9.6 137.13 9.6C137.477 9.6 137.77 9.72667 138.01 9.98C138.264 10.22 138.39 10.5133 138.39 10.86C138.39 11.2067 138.264 11.5067 138.01 11.76C137.77 12 137.477 12.12 137.13 12.12C136.784 12.12 136.484 12 136.23 11.76C135.99 11.5067 135.87 11.2067 135.87 10.86ZM138.41 14.8C138.33 14.8267 138.29 14.9133 138.29 15.06V22.3C138.29 22.38 138.317 22.4533 138.37 22.52C138.437 22.5733 138.51 22.6 138.59 22.6H139.55C139.684 22.6 139.75 22.6667 139.75 22.8C139.75 22.9333 139.684 23 139.55 23H134.85C134.717 23 134.65 22.9333 134.65 22.8C134.65 22.6667 134.717 22.6 134.85 22.6H135.79C135.87 22.6 135.937 22.5733 135.99 22.52C136.057 22.4533 136.09 22.38 136.09 22.3V15.48C136.09 15.4 136.057 15.34 135.99 15.3C135.924 15.2467 135.85 15.2267 135.77 15.24L134.81 15.38C134.69 15.4067 134.617 15.36 134.59 15.24C134.564 15.12 134.61 15.0467 134.73 15.02L138.33 14.44C138.437 14.4133 138.51 14.4533 138.55 14.56C138.577 14.6667 138.53 14.7467 138.41 14.8ZM145.842 21.5C145.896 21.3667 145.982 21.3267 146.102 21.38C146.169 21.4067 146.202 21.4533 146.202 21.52C146.202 21.5733 146.189 21.62 146.162 21.66C145.962 22.0867 145.696 22.4533 145.362 22.76C145.042 23.0533 144.602 23.2 144.042 23.2C143.296 23.2 142.762 23.0133 142.442 22.64C142.136 22.2667 141.982 21.7533 141.982 21.1V15H140.942C140.809 15 140.742 14.9333 140.742 14.8C140.742 14.6667 140.809 14.6 140.942 14.6H141.682C141.909 14.6 142.129 14.56 142.342 14.48C142.569 14.3867 142.769 14.2467 142.942 14.06C143.129 13.86 143.289 13.6067 143.422 13.3C143.556 12.98 143.649 12.5933 143.702 12.14C143.729 11.98 143.809 11.9 143.942 11.9C144.102 11.9 144.182 11.98 144.182 12.14V14.6H145.642C145.776 14.6 145.842 14.6667 145.842 14.8C145.842 14.9333 145.776 15 145.642 15H144.482C144.402 15 144.329 15.0333 144.262 15.1C144.209 15.1533 144.182 15.22 144.182 15.3V21.2C144.182 21.3733 144.182 21.5467 144.182 21.72C144.196 21.88 144.216 22.0267 144.242 22.16C144.269 22.2933 144.316 22.4 144.382 22.48C144.462 22.56 144.562 22.6 144.682 22.6C144.962 22.6 145.196 22.48 145.382 22.24C145.582 22 145.736 21.7533 145.842 21.5ZM151.995 21.5C152.048 21.3667 152.135 21.3267 152.255 21.38C152.321 21.4067 152.355 21.4533 152.355 21.52C152.355 21.5733 152.341 21.62 152.315 21.66C152.115 22.0867 151.848 22.4533 151.515 22.76C151.195 23.0533 150.755 23.2 150.195 23.2C149.448 23.2 148.915 23.0133 148.595 22.64C148.288 22.2667 148.135 21.7533 148.135 21.1V15H147.095C146.961 15 146.895 14.9333 146.895 14.8C146.895 14.6667 146.961 14.6 147.095 14.6H147.835C148.061 14.6 148.281 14.56 148.495 14.48C148.721 14.3867 148.921 14.2467 149.095 14.06C149.281 13.86 149.441 13.6067 149.575 13.3C149.708 12.98 149.801 12.5933 149.855 12.14C149.881 11.98 149.961 11.9 150.095 11.9C150.255 11.9 150.335 11.98 150.335 12.14V14.6H151.795C151.928 14.6 151.995 14.6667 151.995 14.8C151.995 14.9333 151.928 15 151.795 15H150.635C150.555 15 150.481 15.0333 150.415 15.1C150.361 15.1533 150.335 15.22 150.335 15.3V21.2C150.335 21.3733 150.335 21.5467 150.335 21.72C150.348 21.88 150.368 22.0267 150.395 22.16C150.421 22.2933 150.468 22.4 150.535 22.48C150.615 22.56 150.715 22.6 150.835 22.6C151.115 22.6 151.348 22.48 151.535 22.24C151.735 22 151.888 21.7533 151.995 21.5ZM158.647 17.6C158.7 17.3467 158.727 17.0667 158.727 16.76C158.727 16.16 158.607 15.6933 158.367 15.36C158.14 15.0267 157.847 14.86 157.487 14.86C157.194 14.86 156.947 14.94 156.747 15.1C156.56 15.26 156.407 15.4667 156.287 15.72C156.18 15.9733 156.1 16.2667 156.047 16.6C156.007 16.9333 155.987 17.2667 155.987 17.6H158.647ZM161.067 17.9C161.067 18.0333 161 18.1 160.867 18.1H155.947C155.934 18.5 155.94 18.96 155.967 19.48C155.994 20 156.074 20.4933 156.207 20.96C156.354 21.4267 156.567 21.8267 156.847 22.16C157.14 22.48 157.54 22.64 158.047 22.64C158.7 22.64 159.214 22.4933 159.587 22.2C159.96 21.9067 160.254 21.5867 160.467 21.24C160.494 21.1867 160.534 21.1533 160.587 21.14C160.64 21.1133 160.7 21.1133 160.767 21.14C160.834 21.18 160.867 21.2333 160.867 21.3C160.867 21.3533 160.854 21.4 160.827 21.44C160.547 21.9467 160.154 22.3667 159.647 22.7C159.154 23.0333 158.554 23.2 157.847 23.2C157.194 23.2 156.6 23.0933 156.067 22.88C155.547 22.6533 155.1 22.3467 154.727 21.96C154.354 21.5733 154.06 21.1133 153.847 20.58C153.647 20.0333 153.547 19.4467 153.547 18.82C153.547 18.2467 153.647 17.7 153.847 17.18C154.06 16.6467 154.347 16.1733 154.707 15.76C155.08 15.3467 155.514 15.02 156.007 14.78C156.514 14.5267 157.06 14.4 157.647 14.4C158.354 14.4 158.98 14.5667 159.527 14.9C160.074 15.2333 160.48 15.7 160.747 16.3C160.854 16.5267 160.94 16.78 161.007 17.06C161.074 17.3267 161.094 17.6067 161.067 17.9ZM166.2 22.3C166.2 22.38 166.227 22.4533 166.28 22.52C166.347 22.5733 166.42 22.6 166.5 22.6H167.46C167.594 22.6 167.66 22.6667 167.66 22.8C167.66 22.9333 167.594 23 167.46 23H162.76C162.627 23 162.56 22.9333 162.56 22.8C162.56 22.6667 162.627 22.6 162.76 22.6H163.7C163.78 22.6 163.847 22.5733 163.9 22.52C163.967 22.4533 164 22.38 164 22.3V15.46C164 15.38 163.967 15.32 163.9 15.28C163.834 15.2267 163.76 15.2067 163.68 15.22L162.72 15.38C162.6 15.4067 162.527 15.36 162.5 15.24C162.474 15.12 162.52 15.0467 162.64 15.02L166.24 14.44C166.347 14.4133 166.42 14.4533 166.46 14.56C166.487 14.6667 166.44 14.7467 166.32 14.8C166.24 14.8267 166.2 14.9133 166.2 15.06V16.4H166.24C166.454 15.7467 166.754 15.2533 167.14 14.92C167.527 14.5733 167.967 14.4 168.46 14.4C168.78 14.4 169.047 14.46 169.26 14.58C169.474 14.6867 169.64 14.82 169.76 14.98C169.894 15.14 169.98 15.3133 170.02 15.5C170.06 15.6867 170.074 15.8533 170.06 16C170.034 16.2133 169.967 16.4 169.86 16.56C169.754 16.72 169.554 16.8 169.26 16.8C168.914 16.8 168.694 16.7067 168.6 16.52C168.507 16.3333 168.454 16.1267 168.44 15.9C168.427 15.6733 168.407 15.4667 168.38 15.28C168.354 15.0933 168.22 15 167.98 15C167.727 15 167.494 15.1067 167.28 15.32C167.067 15.5333 166.88 15.8267 166.72 16.2C166.56 16.5733 166.434 17.02 166.34 17.54C166.247 18.0467 166.2 18.6 166.2 19.2V22.3Z" fill="white"/>
</svg>

