<?xml version="1.0" standalone="no"?>
<!DOCTYPE svg PUBLIC "-//W3C//DTD SVG 20010904//EN"
 "http://www.w3.org/TR/2001/REC-SVG-20010904/DTD/svg10.dtd">
<svg version="1.0" xmlns="http://www.w3.org/2000/svg"
 width="928.000000pt" height="928.000000pt" viewBox="0 0 928.000000 928.000000"
 preserveAspectRatio="xMidYMid meet">
<metadata>
Created by potrace 1.14, written by Peter Selinger 2001-2017
</metadata>
<g transform="translate(0.000000,928.000000) scale(0.100000,-0.100000)"
fill="#000000" stroke="none">
<path d="M2287 9224 c-2 -2 -25 -6 -53 -9 -27 -3 -65 -8 -84 -11 -19 -3 -44
-7 -55 -9 -105 -17 -314 -82 -421 -131 -29 -13 -58 -24 -63 -24 -6 0 -11 -4
-11 -10 0 -5 -7 -10 -15 -10 -8 0 -37 -13 -65 -30 -28 -16 -53 -30 -56 -30 -3
0 -10 -5 -17 -10 -7 -6 -50 -35 -95 -65 -46 -31 -90 -61 -97 -68 -7 -6 -32
-28 -56 -47 -97 -76 -261 -252 -328 -350 -25 -36 -47 -67 -51 -70 -18 -16
-118 -196 -118 -214 0 -5 -4 -12 -9 -15 -16 -10 -116 -263 -127 -321 -2 -14
-11 -52 -20 -85 -8 -33 -18 -73 -21 -90 -2 -16 -7 -40 -9 -52 -23 -114 -27
-593 -5 -593 3 0 5 -10 4 -22 -1 -13 2 -33 6 -46 5 -12 11 -39 14 -60 7 -48
13 -76 15 -79 2 -2 3 -6 4 -10 6 -27 38 -131 45 -148 5 -11 19 -47 31 -80 29
-76 113 -247 140 -284 11 -16 20 -32 20 -35 0 -11 101 -149 165 -226 69 -82
182 -194 260 -255 28 -22 52 -43 55 -46 11 -11 158 -108 215 -141 81 -46 233
-118 250 -118 8 0 17 -5 20 -10 4 -6 10 -8 15 -5 5 3 11 1 15 -5 3 -5 12 -10
20 -10 8 0 26 -5 42 -12 15 -6 37 -13 48 -15 11 -2 27 -6 35 -10 17 -7 25 -9
60 -16 14 -3 32 -8 40 -11 8 -3 31 -7 50 -10 19 -3 44 -7 55 -10 138 -28 509
-29 645 -1 14 3 37 7 52 10 147 27 364 98 459 150 14 8 29 12 33 8 3 -3 6 -2
6 4 0 6 15 16 33 24 81 32 373 230 360 243 -4 3 0 6 8 6 16 1 208 192 259 260
19 25 39 50 45 56 5 6 17 22 25 34 8 12 23 33 33 45 9 13 17 27 17 31 0 4 6
15 14 23 36 40 143 257 184 371 50 140 85 273 98 378 3 20 9 66 14 102 5 36 7
146 4 245 -5 217 -7 235 -17 235 -5 0 -6 4 -3 9 6 10 -6 77 -29 170 -8 30 -12
58 -9 62 3 5 0 9 -5 9 -6 0 -11 8 -11 18 0 33 -70 214 -124 321 -107 214 -212
359 -382 526 -62 61 -118 115 -125 120 -117 90 -154 117 -211 153 -111 69
-377 194 -440 206 -7 1 -33 9 -58 16 -25 7 -49 14 -55 16 -5 1 -28 6 -50 12
-22 6 -58 13 -79 17 -21 3 -48 8 -60 11 -53 13 -468 29 -479 18z m163 -588 c0
16 160 4 280 -21 14 -3 37 -7 52 -10 15 -3 37 -9 50 -14 13 -5 25 -9 28 -9 5
-1 25 -7 75 -24 90 -31 259 -117 295 -150 10 -10 22 -18 26 -18 9 0 186 -150
196 -165 3 -5 19 -24 35 -41 66 -71 121 -144 164 -219 38 -67 99 -194 99 -208
0 -7 5 -18 12 -25 7 -7 9 -12 5 -12 -3 0 2 -20 13 -45 11 -25 17 -45 15 -45
-3 0 0 -11 5 -24 5 -13 12 -43 15 -67 4 -24 8 -46 10 -49 3 -5 9 -57 20 -170
1 -14 -3 -31 -9 -39 -8 -11 -8 -13 1 -8 17 11 5 -178 -18 -283 -6 -25 -13 -56
-15 -70 -19 -108 -127 -339 -217 -466 -71 -100 -193 -225 -287 -295 -36 -27
-74 -56 -85 -64 -10 -8 -25 -15 -31 -15 -7 0 -14 -4 -16 -9 -10 -28 -333 -158
-411 -166 -18 -2 -32 -4 -32 -5 0 -9 -173 -24 -275 -24 -135 0 -193 8 -364 49
-30 7 -90 27 -101 34 -5 3 -14 6 -20 7 -26 4 -163 70 -183 88 -13 12 -26 20
-28 18 -5 -3 -104 60 -124 79 -8 8 -30 25 -48 38 -73 51 -201 193 -275 305
-119 180 -196 390 -223 611 -13 111 -5 332 15 403 5 17 8 32 6 32 -2 0 2 18
10 40 8 22 14 43 14 45 -1 14 15 72 24 90 6 11 12 22 12 25 6 34 68 166 108
227 15 24 27 45 27 48 0 3 4 11 10 18 144 179 262 301 326 335 13 7 24 16 24
21 0 5 8 11 18 15 9 3 31 15 47 26 17 11 46 28 65 37 19 10 41 24 48 31 7 6
18 12 23 12 6 0 31 9 56 21 25 11 53 22 62 25 9 2 42 13 73 24 32 11 74 23 95
26 21 3 42 8 46 11 9 6 46 10 145 19 43 3 79 8 81 10 2 2 10 -1 18 -7 7 -6 13
-7 13 -3z"/>
<path d="M2458 7694 c-2 -1 -21 -4 -43 -7 -61 -9 -67 -11 -126 -39 -73 -37
-144 -109 -182 -188 -51 -107 -47 -262 10 -362 72 -128 205 -208 349 -209 313
-3 510 335 352 605 -62 104 -173 177 -296 194 -34 5 -63 8 -64 6z"/>
<path d="M4357 8524 c-3 -3 -25 -7 -49 -9 -198 -17 -205 -18 -213 -27 -3 -3
15 -40 40 -82 25 -42 45 -79 45 -83 0 -4 7 -14 15 -23 40 -44 188 -381 209
-475 2 -5 8 -30 15 -55 7 -25 15 -54 17 -65 10 -51 16 -83 25 -117 l9 -37 143
-1 c78 0 162 -2 187 -4 145 -12 208 -18 230 -22 14 -2 41 -7 60 -10 32 -4 103
-17 170 -30 14 -3 33 -7 42 -10 10 -3 30 -8 45 -10 33 -6 202 -52 223 -61 8
-3 18 -7 23 -8 4 -2 8 -3 10 -5 1 -1 10 -3 20 -5 10 -2 26 -7 35 -11 9 -4 19
-8 22 -8 22 -6 158 -61 168 -69 6 -5 12 -7 12 -4 0 3 42 -14 93 -39 50 -25
112 -55 137 -67 25 -12 47 -24 50 -27 3 -3 16 -11 30 -18 55 -26 338 -213 373
-246 15 -14 27 -23 27 -21 0 3 9 -3 21 -13 11 -9 30 -25 42 -35 126 -105 311
-285 387 -376 25 -30 50 -59 55 -65 6 -6 29 -36 53 -66 23 -30 45 -59 50 -65
4 -5 23 -32 42 -60 19 -27 37 -51 42 -53 4 -2 8 -7 8 -12 0 -5 18 -36 40 -69
22 -33 54 -84 70 -113 30 -52 154 -298 155 -308 1 -3 9 -23 19 -45 10 -22 31
-76 47 -120 16 -44 32 -87 36 -95 3 -8 7 -21 9 -27 1 -7 11 -41 22 -76 12 -34
23 -74 26 -87 3 -14 14 -59 25 -100 11 -41 22 -91 25 -110 3 -19 12 -71 19
-115 8 -44 15 -87 15 -95 1 -8 3 -28 6 -45 24 -144 25 -589 1 -760 -1 -11 -3
-20 -4 -20 -1 0 -4 -13 -6 -30 -9 -85 -16 -132 -30 -195 -4 -14 -8 -36 -11
-50 -22 -111 -98 -366 -135 -455 -6 -16 -13 -34 -15 -40 -1 -5 -12 -32 -25
-60 -12 -27 -23 -52 -24 -55 -5 -23 -121 -253 -152 -302 -12 -21 -23 -42 -23
-48 0 -5 -4 -10 -9 -10 -5 0 -11 -8 -14 -17 -6 -19 -38 -75 -48 -83 -3 -3 -25
-34 -49 -70 -24 -36 -48 -69 -52 -75 -5 -5 -22 -28 -39 -50 -92 -122 -158
-196 -298 -335 -114 -113 -170 -163 -296 -262 -26 -21 -85 -65 -105 -78 -12
-8 -40 -27 -61 -43 -21 -15 -41 -27 -43 -27 -3 0 -24 -13 -48 -29 -93 -62
-377 -211 -404 -211 -8 0 -14 -4 -14 -10 0 -5 -6 -10 -14 -10 -7 0 -38 -11
-67 -24 -30 -13 -58 -25 -64 -26 -5 -1 -21 -7 -35 -12 -14 -6 -32 -11 -40 -13
-8 -2 -16 -4 -17 -5 -2 -2 -6 -3 -10 -5 -5 -1 -15 -4 -23 -8 -71 -29 -332 -94
-450 -113 -19 -3 -42 -7 -50 -9 -20 -6 -102 -16 -154 -20 -22 -2 -41 -4 -41
-5 0 -6 -171 -12 -320 -11 -205 0 -265 4 -283 14 -7 5 -12 3 -12 -3 0 -6 -4
-8 -10 -5 -5 3 -31 8 -57 11 -27 3 -61 7 -78 10 -16 2 -46 7 -65 9 -19 3 -55
10 -80 15 -47 11 -64 14 -143 30 -26 5 -56 14 -67 20 -11 6 -20 9 -20 6 0 -3
-15 0 -32 5 -18 6 -37 12 -43 13 -47 13 -132 40 -140 45 -5 3 -12 6 -15 7 -30
5 -90 27 -95 34 -3 6 -12 10 -20 10 -7 0 -35 10 -62 22 -26 11 -53 22 -59 23
-13 3 -213 103 -266 134 -21 11 -55 31 -75 42 -21 12 -71 43 -111 70 -40 27
-77 49 -82 49 -6 0 -10 5 -10 10 0 6 -5 10 -10 10 -6 0 -19 8 -29 17 -21 20
-20 19 -106 83 -33 24 -67 51 -76 60 -9 8 -43 38 -75 67 -115 101 -344 339
-344 357 0 4 -10 18 -22 31 -28 29 -33 35 -86 106 -23 31 -42 61 -42 67 0 7
-4 12 -8 12 -10 0 -72 93 -72 109 0 6 -3 11 -8 11 -4 0 -16 17 -27 38 -11 20
-23 39 -26 42 -3 3 -32 55 -63 115 -32 61 -61 115 -64 120 -4 6 -7 15 -8 21
-1 6 -16 38 -32 72 -17 35 -31 63 -30 65 0 1 -7 20 -16 42 -16 37 -75 207 -81
230 -1 6 -4 17 -7 25 -13 34 -38 127 -43 159 -3 19 -8 37 -10 41 -2 3 -6 17
-8 31 -3 13 -12 60 -22 104 -9 44 -18 98 -20 120 -2 22 -4 40 -5 40 -1 0 -3
16 -5 35 -2 19 -7 67 -11 105 -11 93 -11 500 0 595 5 41 10 91 12 110 1 19 4
35 4 35 1 0 3 11 5 25 5 41 16 102 27 150 18 75 23 168 14 220 -30 158 -105
267 -238 345 -113 67 -260 88 -378 56 -185 -50 -321 -206 -356 -408 -2 -13 -6
-35 -9 -50 -3 -16 -7 -37 -9 -48 -2 -11 -6 -36 -10 -55 -9 -53 -14 -83 -21
-141 -3 -30 -8 -67 -10 -84 -31 -235 -26 -778 9 -990 2 -16 8 -55 11 -85 4
-30 9 -64 11 -75 3 -11 7 -36 10 -55 3 -19 7 -43 10 -52 7 -24 14 -59 19 -92
2 -15 7 -36 10 -46 3 -10 7 -27 9 -37 2 -10 11 -45 20 -78 9 -33 19 -69 21
-80 9 -40 38 -132 67 -214 17 -45 31 -88 33 -95 2 -12 19 -57 34 -91 5 -11 26
-60 46 -110 50 -122 191 -402 230 -460 12 -17 26 -41 33 -55 14 -29 15 -31
101 -159 106 -158 120 -178 136 -191 8 -7 15 -16 15 -21 0 -8 32 -48 67 -85 7
-7 13 -15 13 -19 0 -4 6 -12 12 -19 7 -7 33 -37 58 -66 64 -76 133 -150 226
-244 68 -68 110 -107 238 -221 44 -39 133 -111 201 -161 44 -32 82 -62 83 -66
2 -5 10 -8 17 -8 7 0 15 -3 17 -7 5 -12 95 -73 106 -73 6 0 12 -3 14 -7 18
-42 652 -373 713 -373 8 0 15 -4 15 -10 0 -5 6 -10 13 -10 7 0 42 -12 78 -26
35 -14 71 -27 79 -29 8 -2 35 -11 60 -20 78 -28 366 -107 440 -121 14 -2 36
-7 50 -11 14 -3 32 -7 40 -8 8 -1 47 -7 87 -14 89 -16 114 -19 183 -27 30 -3
66 -7 80 -10 148 -25 758 -25 896 0 10 2 46 7 79 11 91 10 118 14 145 20 14 3
39 7 55 10 78 13 135 24 157 31 10 3 30 7 45 10 88 15 411 111 432 128 8 6 15
9 15 7 1 -5 70 15 101 29 11 5 45 19 75 31 56 21 65 25 183 78 38 17 70 31 72
31 2 0 27 13 55 30 27 16 50 27 50 24 0 -4 6 -2 13 4 6 5 37 23 67 40 30 16
75 41 100 56 25 14 60 34 78 43 17 9 32 20 32 25 0 4 5 8 11 8 14 0 192 119
294 197 6 5 28 21 50 37 33 25 99 79 171 141 48 41 174 157 203 186 178 181
320 345 443 513 21 28 41 56 45 61 5 6 28 42 53 80 24 39 47 72 50 75 5 5 12
15 62 100 45 76 86 150 101 180 6 14 14 27 17 30 3 3 19 34 37 70 28 58 47
101 106 231 25 55 86 215 113 299 14 41 28 82 31 90 3 8 7 21 9 29 1 8 9 35
17 60 8 25 19 62 23 81 11 48 11 50 13 53 2 1 5 13 8 27 7 39 11 55 13 55 2 0
3 4 34 162 14 72 28 152 30 178 3 25 8 60 11 78 7 35 10 68 22 202 9 107 9
586 -1 665 -3 30 -8 78 -11 105 -5 65 -13 127 -25 195 -5 30 -12 73 -15 95 -2
22 -9 55 -14 73 -5 18 -10 33 -9 35 0 7 -15 87 -22 112 -5 17 -11 41 -14 55
-3 14 -14 56 -25 95 -11 38 -17 73 -15 77 3 4 0 8 -5 8 -6 0 -11 8 -11 17 0
19 -16 72 -37 120 -7 17 -13 35 -13 40 0 7 -58 164 -80 218 -35 83 -61 141
-133 285 -85 173 -100 201 -204 367 -63 101 -225 332 -258 367 -5 6 -44 51
-85 100 -139 167 -300 330 -469 475 -30 25 -62 53 -71 61 -62 58 -279 211
-490 345 -116 73 -488 265 -515 265 -3 0 -27 9 -53 21 -26 12 -56 24 -67 29
-11 4 -33 13 -50 20 -16 6 -70 25 -120 42 -49 16 -97 32 -105 35 -8 3 -24 8
-35 10 -11 2 -31 7 -45 13 -21 7 -82 25 -125 35 -5 1 -17 5 -25 8 -26 10 -174
41 -192 40 -10 0 -18 2 -18 6 0 3 -10 6 -22 7 -13 0 -54 7 -93 14 -38 7 -83
14 -100 15 -16 2 -43 6 -60 9 -16 3 -61 8 -100 11 -38 4 -86 8 -105 11 -52 7
-576 15 -583 8z"/>
<path d="M4430 5494 c-139 -24 -205 -43 -318 -95 -68 -31 -205 -116 -210 -130
-2 -5 -8 -9 -13 -9 -5 0 -17 -8 -27 -17 -10 -10 -38 -36 -63 -59 -81 -76 -157
-173 -209 -269 -18 -33 -37 -65 -42 -72 -5 -7 -5 -14 1 -17 6 -4 8 -13 5 -21
-4 -8 -10 -12 -15 -9 -5 3 -9 -2 -9 -11 0 -9 4 -14 8 -11 5 3 9 -2 9 -10 0 -9
-6 -13 -14 -10 -8 3 -12 2 -8 -3 3 -5 2 -11 -2 -14 -5 -2 -3 -2 4 -1 7 2 10
-3 7 -11 -3 -8 -13 -11 -22 -8 -18 7 -17 5 12 -17 11 -8 17 -10 13 -3 -4 6 -3
14 2 17 7 5 8 -22 1 -31 -2 -2 -3 -12 -4 -22 0 -11 -5 -23 -10 -28 -5 -4 -7
-3 -3 3 3 6 0 11 -8 11 -11 0 -12 -4 -4 -13 5 -7 22 -10 37 -8 20 3 23 2 12
-5 -8 -5 -17 -8 -20 -6 -3 2 -12 -5 -19 -17 -7 -11 -9 -18 -4 -15 5 3 13 -5
19 -18 10 -20 9 -22 -10 -17 -21 4 -21 4 -1 -11 11 -9 16 -17 10 -17 -5 0 -3
-5 5 -11 12 -8 9 -9 -10 -4 -17 4 -21 3 -11 -3 11 -8 11 -10 0 -15 -11 -4 -11
-6 -1 -6 7 -1 11 -5 7 -10 -3 -5 -1 -12 4 -16 6 -3 8 3 6 15 -2 11 0 20 6 20
7 0 6 -38 -2 -47 -1 -2 -2 -6 -3 -10 -1 -5 -5 -14 -10 -22 -7 -10 -5 -12 5 -7
8 4 5 0 -6 -9 -19 -15 -19 -16 15 -10 24 4 30 2 20 -4 -8 -5 -18 -7 -22 -5 -4
3 -8 0 -8 -6 0 -6 -4 -9 -8 -6 -5 3 -9 -1 -9 -9 0 -10 4 -12 12 -5 12 10 35
-5 35 -24 0 -5 -7 -1 -15 10 -11 15 -14 16 -15 4 0 -9 5 -21 11 -27 9 -9 6
-10 -12 -6 -24 5 -24 5 -4 -10 11 -9 16 -17 10 -17 -5 0 -3 -5 5 -11 12 -8 9
-9 -10 -4 -19 5 -22 4 -10 -4 13 -9 9 -15 -10 -13 -3 0 -6 -8 -6 -18 0 -11 5
-16 15 -12 9 3 12 1 7 -6 -3 -6 -2 -13 4 -17 6 -4 8 -10 5 -15 -3 -5 -1 -11 5
-15 6 -4 7 -12 3 -18 -4 -7 -8 -16 -8 -22 0 -5 -8 -9 -18 -9 -9 1 -14 -2 -11
-8 3 -5 15 -6 26 -2 15 4 19 2 16 -7 -3 -8 -12 -13 -22 -11 -9 2 -16 -2 -16
-8 0 -6 5 -8 10 -5 6 3 11 -3 11 -14 3 -38 4 -42 19 -52 13 -9 12 -10 -2 -6
-9 3 -19 1 -22 -6 -3 -7 -3 0 -1 16 2 15 0 25 -4 22 -12 -7 -7 -71 4 -65 6 3
9 8 7 13 -1 4 2 7 8 7 13 0 13 -17 -1 -25 -15 -10 -5 -72 21 -130 13 -27 24
-52 24 -55 1 -3 11 -19 24 -37 12 -17 22 -36 22 -41 0 -6 3 -12 8 -14 4 -1 26
-28 50 -59 67 -89 242 -249 271 -249 6 0 11 -4 11 -9 0 -12 210 -115 275 -134
79 -24 103 -29 190 -43 63 -10 265 -11 325 -1 25 4 63 10 84 13 90 12 334 114
387 160 8 8 21 14 27 14 7 0 12 4 12 8 0 4 14 16 31 26 41 24 184 167 232 231
20 28 41 55 47 62 5 7 10 14 10 17 0 3 16 32 35 65 19 32 35 66 35 75 0 9 4
16 8 16 6 0 48 113 58 155 1 6 7 33 14 60 23 100 31 304 17 410 -33 238 -149
474 -317 645 -78 79 -159 150 -173 150 -4 0 -17 8 -28 19 -25 23 -185 103
-254 126 -46 16 -86 26 -155 40 -14 3 -36 8 -50 11 -48 12 -276 11 -350 -2z
m-871 -928 c-3 -3 -11 5 -18 17 -13 21 -12 21 5 5 10 -10 16 -20 13 -22z m-12
-336 c-2 -11 -7 -23 -12 -27 -4 -5 -5 -3 -1 4 3 6 2 14 -4 18 -12 7 -4 25 11
25 5 0 8 -9 6 -20z m13 -310 c0 -5 -2 -10 -4 -10 -3 0 -8 5 -11 10 -3 6 -1 10
4 10 6 0 11 -4 11 -10z"/>
<path d="M3510 4441 c0 -6 4 -12 8 -15 5 -3 9 1 9 9 0 8 -4 15 -9 15 -4 0 -8
-4 -8 -9z"/>
<path d="M3519 4188 c-6 -17 -4 -60 4 -65 6 -3 7 -1 3 5 -3 6 -2 14 4 17 8 5
8 11 1 19 -6 7 -8 16 -4 19 3 4 3 7 0 7 -4 0 -7 -1 -8 -2z"/>
</g>
</svg>
